<svg width="250" height="250" viewBox="0 0 250 250" fill="none" xmlns="http://www.w3.org/2000/svg">
<g clip-path="url(#clip0_13_3350)">
<path d="M250 0H-8.39233e-05V250H250V0Z" fill="#00364F"/>
<path d="M250 0H-8.39233e-05V250H250V0Z" fill="url(#paint0_linear_13_3350)"/>
<path d="M154.732 163.339C156.268 163.429 157.161 163.589 157.214 163.821C156.107 158.268 154.839 151.571 148.357 150.214C145.018 149.518 141.553 150.232 138.161 150.661C134.768 151.089 131.107 151.196 128.178 149.464C125.678 147.982 123.911 145.304 121.143 144.429C118.5 143.607 115.625 144.643 112.893 144.214C106.964 143.286 104.393 136.464 101.125 131.429C94.7499 121.607 81.6607 116.696 70.3928 119.911C65.3214 121.357 60.5178 124.268 55.2499 124.071C50.1249 123.857 45.5535 120.661 42.0892 116.875C32.0714 105.946 22.0535 92.2499 6.35712 89.6249C-1.7143 88.2857 -10.5357 89.8749 -17.5357 94.1964C-22.5536 97.3035 -25.7679 104.286 -27.5893 109.732C-29.2679 114.768 -28.3214 118.893 -28.5893 123.875C-28.9464 130.071 -31 135.839 -30.7857 142.232C-30.4643 152.339 -27.8571 162.232 -24.6429 171.821C-24.3929 172.589 -6.98216 170.875 -5.82144 170.804C9.14283 170 24.1071 169.196 39.0714 168.375C58.4107 167.339 77.7678 166.286 97.1071 165.25C101.571 165 143.946 162.679 154.732 163.339Z" fill="url(#paint1_linear_13_3350)"/>
<path d="M189.857 184.75C206.642 184.75 220.25 171.143 220.25 154.357C220.25 137.572 206.642 123.964 189.857 123.964C173.071 123.964 159.464 137.572 159.464 154.357C159.464 171.143 173.071 184.75 189.857 184.75Z" fill="url(#paint2_linear_13_3350)"/>
<path d="M250 159.821H-8.39233e-05V250H250V159.821Z" fill="url(#paint3_linear_13_3350)"/>
<path d="M133.75 168.232L-11.3036 171.643L-11.5893 168.232L-16.9643 103.357L1.14282 111.964L4.55353 97.8572L8.01782 115.232L23.9285 122.804L24.6785 119.643L25.4643 123.536L27.7857 124.643L29.1964 124.964L31.4821 115.536L33.5714 126L59.0357 131.964L60 127.947L60.8929 132.411L64.1607 133.179L66.3572 124.072L68.375 134.161L73.1786 135.286L74.1429 131.304L75.0357 135.714L77.9464 136.411L95.0893 146.179L97.1786 137.5L99.4108 148.643L120.982 160.947L123.268 151.482L125.696 163.643L133.75 168.232Z" fill="url(#paint4_linear_13_3350)"/>
<path opacity="0.59" d="M133.75 168.232L125.696 172.822L123.268 185L120.982 175.518L99.4108 187.822L97.1786 198.964L95.0893 190.286L77.9464 200.072L75.0357 200.75L74.1429 205.179L73.1786 201.179L68.375 202.304L66.3572 212.393L64.1607 203.286L60.8929 204.072L60 208.518L59.0357 204.5L33.5714 210.464L31.4821 220.929L29.1964 211.5L27.7857 211.822L25.4643 212.929L24.6785 216.822L23.9285 213.661L8.01782 221.232L4.55353 238.607L1.14282 224.5L-16.9643 233.107L-11.5893 168.232L-11.3036 171.643L133.75 168.232Z" fill="url(#paint5_linear_13_3350)"/>
<path d="M225.268 161.571C224.768 161.91 224.143 162 223.535 162.071C218.089 162.714 212.643 163.357 207.196 164C206.571 164.071 205.803 164.268 205.678 164.875C205.589 165.303 205.893 165.714 206.268 165.928C206.643 166.143 207.089 166.16 207.518 166.196C210.589 166.41 213.66 166.625 216.732 166.821C217.214 166.857 217.696 166.893 218.125 167.107C218.553 167.321 218.893 167.768 218.857 168.25C218.785 169 217.893 169.321 217.16 169.446C209.625 170.785 201.75 169.696 194.357 171.625C194.018 171.714 193.66 171.839 193.5 172.143C193.178 172.768 194.018 173.393 194.714 173.375C195.41 173.357 196.107 173.035 196.785 173.232C197.75 173.518 198.089 174.678 198.803 175.375C199.607 176.143 200.803 176.285 201.928 176.375C203.768 176.535 205.607 176.678 207.428 176.839C207.857 176.875 208.285 176.91 208.66 177.125C209.018 177.339 209.303 177.785 209.178 178.178C209.071 178.535 208.696 178.768 208.357 178.928C205.428 180.285 201.928 180.875 198.768 181.482C195.143 182.178 191.518 182.821 187.91 183.571C187.589 183.643 187.214 183.732 187.035 184.018C186.803 184.375 187.018 184.893 187.375 185.143C187.732 185.393 188.178 185.428 188.607 185.482C190.268 185.678 191.91 186 193.518 186.464C194.018 186.607 194.589 186.839 194.75 187.339C194.893 187.768 194.66 188.25 194.303 188.518C193.946 188.785 193.5 188.928 193.071 189.053C191.518 189.482 189.982 189.928 188.428 190.357C188.196 190.428 187.928 190.518 187.839 190.732C187.732 190.982 187.91 191.268 188.143 191.393C188.375 191.518 188.643 191.518 188.91 191.518C193.178 191.518 197.446 191.696 201.696 192.053C202.446 192.125 203.428 192.446 203.357 193.196C203.303 193.785 202.589 194.053 202 194.196C199.625 194.678 196.25 195 194.232 196.411C194.053 196.536 193.875 196.678 193.839 196.893C193.785 197.178 194.035 197.464 194.321 197.571C194.607 197.661 194.91 197.643 195.214 197.625C196.393 197.589 197.571 197.964 198.518 198.66C198.893 198.928 199.25 199.339 199.178 199.803C199.107 200.303 198.571 200.571 198.107 200.75C193.964 202.285 189.518 201.16 185.285 202.357C184.678 202.518 184.018 202.821 183.839 203.428C183.589 204.321 184.66 205.071 185.589 205.143C186.91 205.232 188.375 204.732 189.643 205.268C190.732 205.732 191.803 207.053 191.16 208.286C190.857 208.875 190.232 209.214 189.625 209.5C188.589 209.982 187.482 210.357 186.375 210.607C185.982 210.696 185.553 210.786 185.232 211.018C184.91 211.268 184.678 211.714 184.857 212.089C185.053 212.518 185.589 212.607 186.053 212.661C187.196 212.768 188.339 212.893 189.464 213C189.803 213.036 190.143 213.071 190.428 213.25C190.714 213.428 190.91 213.786 190.785 214.107C190.66 214.411 190.303 214.553 189.982 214.643C186 215.732 181.785 216 177.714 215.411C177.196 215.339 176.518 215.071 176.571 214.536C176.625 213.964 177.5 213.821 177.714 213.286C177.928 212.75 177.375 212.196 176.803 212.107C176.232 212.018 175.66 212.232 175.089 212.25C174.518 212.286 173.839 212.018 173.732 211.446C173.66 211.053 173.91 210.643 174.268 210.428C174.607 210.214 175.018 210.143 175.428 210.071C177 209.803 181.518 209.911 181.339 207.411C181.285 206.678 180.66 206.071 179.964 205.821C178.41 205.268 176.482 205.625 174.893 205.839C174.553 205.893 174.071 205.839 174.035 205.482C174 205.16 174.393 205 174.589 204.75C174.893 204.339 174.607 203.732 174.16 203.5C173.714 203.268 173.178 203.303 172.678 203.339C171.321 203.428 169.964 203.393 168.625 203.25C168.018 203.178 167.232 202.875 167.303 202.268C167.357 201.768 167.946 201.571 168.446 201.464C171.321 200.91 174.232 200.625 177.16 200.571C178.25 200.553 179.018 200.321 180.053 200.107C181.285 199.839 182.589 200.125 183.768 199.553C184.607 199.16 185.393 197.946 184.285 197.339C183.875 197.107 183.357 197.089 182.893 197.089C179.339 197.035 175.803 196.982 172.25 196.928C171.91 196.928 171.553 196.911 171.232 196.768C170.91 196.625 170.66 196.303 170.696 195.964C170.732 195.553 171.143 195.303 171.5 195.107L174.714 193.375C175.178 193.125 175.696 192.607 175.393 192.196C175.25 192 174.982 191.946 174.732 191.928C168.625 191.393 162.321 191.553 156.16 191.428C155.053 191.41 153.571 190.964 153.696 189.875C153.803 189.018 154.857 188.696 155.714 188.571C158.464 188.196 161.821 188.268 164.071 186.464C164.571 186.053 165.018 185.571 165.535 185.196C166.928 184.214 169.107 183.928 170.75 183.428C173.107 182.714 175.893 182.75 178.321 182.535C181.393 182.268 184.553 182.035 187.553 181.214C188.464 180.964 189.535 180.428 189.535 179.482C189.535 178.928 189.107 178.428 188.607 178.178C188.107 177.928 187.535 177.875 186.982 177.821C183.375 177.464 179.785 177.107 176.178 176.75C175.553 176.696 174.714 176.339 174.875 175.732C175.053 175.089 176.125 175.178 176.393 174.571C176.553 174.214 176.321 173.768 175.964 173.571C175.625 173.375 175.196 173.357 174.803 173.357C171.268 173.303 167.732 173.232 164.196 173.16C163.464 173.143 162.571 173.035 162.303 172.357C162.107 171.875 162.357 171.303 162.75 170.964C163.143 170.625 163.66 170.464 164.16 170.321C165.357 169.964 166.535 169.607 167.714 169.25C168.535 169 169.5 168.589 169.607 167.732C169.678 167.16 169.285 166.625 168.785 166.339C168.285 166.053 167.696 165.982 167.125 165.893C163.982 165.482 160.857 165.089 157.714 164.678C156.964 164.589 156.196 164.482 155.535 164.107C154.875 163.732 154.357 163.018 154.428 162.268C154.535 161.321 155.482 160.714 156.357 160.321C156.696 160.16 157.035 160.018 157.393 159.875H225.714C225.768 159.928 225.803 159.982 225.821 160.053C226.107 160.553 225.768 161.232 225.268 161.571Z" fill="url(#paint6_linear_13_3350)"/>
<path d="M164.197 177.035C166.911 177.464 169.554 177.071 172.232 176.768C172.679 176.714 173.179 176.357 173.072 175.928C172.982 175.553 172.536 175.41 172.161 175.357C169.661 174.946 166.572 175.143 164.179 175.982C163.858 176.089 163.483 176.339 163.554 176.66C163.625 176.893 163.929 176.982 164.197 177.035Z" fill="url(#paint7_linear_13_3350)"/>
<path d="M271.447 82.0356C271.376 82.0892 271.322 82.1428 271.251 82.1963H176.215C177.215 80.7499 179.001 79.7321 180.733 79.2142C183.268 78.4642 186.018 78.3571 188.393 77.1963C192.733 75.0535 194.893 69.8213 199.268 67.7321C202.804 66.0535 207.054 66.7856 210.715 65.3749C215.768 63.4106 218.376 57.9999 221.697 53.6964C226.679 47.2321 234.126 42.7321 242.161 41.3392C250.197 39.9464 258.733 41.6785 265.59 46.1071L271.447 82.0356Z" fill="url(#paint8_linear_13_3350)"/>
<path d="M193.732 205.964C194.268 206.017 197.518 206.446 197.16 204.339C197.053 203.714 196.589 203.571 196.232 203.571C195.607 203.589 194.857 203.642 194.268 204.035C194 204.214 193.214 204.732 193.16 205.25C193.143 205.482 193.232 205.714 193.357 205.821C193.482 205.928 193.607 205.946 193.732 205.964Z" fill="url(#paint9_linear_13_3350)"/>
<path d="M168.911 205.999C169.447 206.017 172.697 206.232 172.34 205.196C172.233 204.892 171.768 204.803 171.411 204.821C170.786 204.821 170.036 204.857 169.447 205.053C169.179 205.142 168.393 205.392 168.34 205.66C168.322 205.785 168.411 205.892 168.536 205.946C168.643 205.982 168.786 205.999 168.911 205.999Z" fill="url(#paint10_linear_13_3350)"/>
<path d="M60.357 204.929H1.54972e-06C1.54972e-06 204.929 -2.32142 252.322 1.54972e-06 251.607C0.732143 251.375 21.9107 251.304 50.4285 251.286C68.6963 241.822 86.9641 232.357 105.589 223.518L60.357 204.929Z" fill="url(#paint11_linear_13_3350)"/>
<path d="M99.4643 240.893C92.5 240.893 85.1786 239.465 78.9286 241.965C73.2679 244.143 68.4107 247.643 63.4464 251.304C72.2322 251.304 81.3929 251.322 89.7857 251.322C93.3036 248.09 96.6786 244.786 99.4643 240.893Z" fill="url(#paint12_linear_13_3350)"/>
<path d="M157.214 220.482L105.964 223.679L105.607 223.536C86.9644 232.357 49.5 241.821 31.25 251.286C38.9822 251.286 50.8393 251.286 63.4643 251.304C68.4286 247.643 73.2858 244.143 78.9465 241.964C85.1965 239.464 92.5179 240.893 99.4822 240.893C96.6965 244.786 93.3215 248.089 89.8215 251.321C97.2144 251.321 104.018 251.339 109.447 251.357C125.589 241.464 141.411 230.946 157.214 220.482Z" fill="url(#paint13_linear_13_3350)"/>
<path d="M157.679 220.446L157.215 220.482C141.411 230.964 125.572 241.464 109.411 251.357C158.786 251.446 206.232 251.607 206.232 251.607C201.965 247.678 157.679 220.446 157.679 220.446Z" fill="url(#paint14_linear_13_3350)"/>
<path d="M35.0358 239.84C28.5001 240.804 22.0536 242.268 15.8036 244.947C21.2322 240.643 26.8572 236.947 31.8215 232.09C29.5893 228.358 26.5358 225.161 22.9108 222.75C20 226.393 17.3572 230.125 16.5893 234.572C17.1965 229.893 18.4108 225.393 19.5179 220.822C15.7143 218.983 11.4465 217.965 6.94646 217.965C6.58932 217.965 6.25003 217.965 5.89289 217.983C5.3036 225.161 4.76789 232.322 4.91075 239.5C1.83932 233.143 -0.857117 226.411 -5.07141 220.572C-8.10712 221.965 -10.875 223.858 -13.2321 226.143C-10.6964 231.5 -8.23212 236.875 -5.96426 242.34C-9.49998 238.465 -13.6964 235.25 -18.0357 232.268C-20.5714 236.572 -22.0179 241.59 -22.0179 246.929C-22.0179 248.625 -21.875 250.286 -21.5893 251.911C-2.5714 251.875 16.4822 251.786 35.5358 251.715C35.7858 250.161 35.9286 248.554 35.9286 246.929C35.9286 244.5 35.6251 242.125 35.0358 239.84Z" fill="#00364F"/>
<path d="M255.5 249.054C251.286 249.679 247.143 250.625 243.107 252.357C246.607 249.589 250.232 247.197 253.429 244.072C251.982 241.661 250.018 239.607 247.679 238.054C245.804 240.411 244.107 242.804 243.607 245.661C244 242.643 244.786 239.75 245.5 236.804C243.054 235.625 240.304 234.964 237.411 234.964C237.179 234.964 236.964 234.964 236.732 234.982C236.339 239.607 236.018 244.214 236.107 248.839C234.125 244.75 232.393 240.411 229.679 236.643C227.714 237.536 225.946 238.75 224.411 240.232C226.036 243.679 227.643 247.143 229.089 250.679C226.804 248.179 224.107 246.107 221.304 244.196C219.679 246.964 218.732 250.197 218.732 253.643C218.732 254.732 218.821 255.804 219 256.857C231.25 256.839 243.536 256.786 255.804 256.732C255.964 255.732 256.054 254.697 256.054 253.643C256.071 252.054 255.875 250.518 255.5 249.054Z" fill="#00364F"/>
<path d="M240.75 249.875C234.214 250.84 227.768 252.304 221.518 254.982C226.946 250.679 232.571 246.982 237.536 242.125C235.304 238.393 232.25 235.197 228.625 232.786C225.714 236.429 223.071 240.161 222.304 244.607C222.911 239.929 224.125 235.429 225.232 230.857C221.429 229.018 217.161 228 212.661 228C212.304 228 211.964 228 211.607 228.018C211.018 235.197 210.482 242.357 210.625 249.536C207.553 243.179 204.857 236.447 200.643 230.607C197.607 232 194.839 233.893 192.482 236.179C195.018 241.536 197.482 246.911 199.75 252.375C196.214 248.5 192.018 245.286 187.678 242.304C185.143 246.607 183.696 251.625 183.696 256.965C183.696 258.661 183.839 260.322 184.125 261.947C203.143 261.911 222.196 261.822 241.25 261.75C241.5 260.197 241.643 258.59 241.643 256.965C241.643 254.536 241.321 252.161 240.75 249.875Z" fill="#00364F"/>
<path d="M112.911 238.375L119.339 212.304V239.804L112.911 238.375Z" fill="#00364F"/>
<path d="M114.964 246.857L121.286 222.036L123.714 245.786L114.964 246.857Z" fill="url(#paint15_linear_13_3350)"/>
<path d="M117.196 242.482L112.911 223.196L109.696 242.482H117.196Z" fill="#00364F"/>
<path d="M120.946 258.821L114.339 239.893L113.446 258.821H120.946Z" fill="url(#paint16_linear_13_3350)"/>
<path d="M112.911 246.946L105.411 234.446V246.946H112.911Z" fill="#00364F"/>
<path d="M128.625 251.411L139.339 217.661C139.339 217.661 136.357 251.268 137.018 251.411C137.678 251.554 128.625 251.411 128.625 251.411Z" fill="#00364F"/>
<path d="M156.482 264.447L161.125 212.304L143.982 264.447H156.482Z" fill="#00364F"/>
<path d="M149.179 266.946C149.322 266.411 146.34 231.411 146.34 231.411L137 265.339L149.179 266.946Z" fill="#00364F"/>
<path d="M124.518 263.553C124.518 262.839 122.911 224.446 122.911 224.446L134.339 264.446L124.518 263.553Z" fill="#00364F"/>
<path d="M154.964 266.946L165.393 232.839V263.732L154.964 266.946Z" fill="#00364F"/>
<path d="M140.589 262.125L133.268 235.518L130.768 262.125H140.589Z" fill="#00364F"/>
<path d="M128.625 264.446L120.589 239.804L118.411 264.446H128.625Z" fill="#00364F"/>
<path d="M112.143 263.375L105.536 244.447L104.643 263.375H112.143Z" fill="#00364F"/>
<path d="M65.2143 234.661C63.8393 234.768 62.4821 234.875 61.1071 234.982C59.2678 235.107 57.375 234.715 57.0893 237.09C56.9286 238.518 56.75 239.929 56.5893 241.357C61.7857 241.393 67 240.857 72.0893 239.732C70.1429 237.59 67.8393 235.804 65.2143 234.661Z" fill="url(#paint17_linear_13_3350)"/>
<path d="M74.75 237.947C73.4643 236.715 72.0178 236.125 70.3214 235.822C69.375 235.643 68.3928 235.518 67.4643 235.233C67.1964 235.143 66.2321 234.572 66.0357 234.59C65.7678 234.608 65.5 234.625 65.2143 234.661C67.8393 235.804 70.1428 237.59 72.0893 239.733C72.8571 239.572 73.6071 239.393 74.3571 239.197C74.6785 239.108 75.0535 238.983 75.1071 238.661C75.1428 238.375 74.9464 238.143 74.75 237.947Z" fill="url(#paint18_linear_13_3350)"/>
<path d="M62.6785 193.571C62.4285 191.125 62.3571 188.071 61 185.893C58.3928 186.857 56.1785 190.339 55.0535 193.768C51.4285 204.839 54.625 220.839 56.7142 232.054C56.9285 233.214 57.1964 234.464 57.8928 235.143C58.5714 235.821 59.4642 235.786 60.2857 235.732C61.4464 235.661 62.6071 235.571 63.7678 235.5C62.5535 221.571 64.0535 207.643 62.6785 193.571Z" fill="url(#paint19_linear_13_3350)"/>
<path d="M68.6072 193.804C68.0715 190.625 66.6786 187.554 64.5536 186.268C63.3215 185.518 62.125 185.464 60.9822 185.875C62.3393 188.054 62.4107 191.107 62.6607 193.554C64.0357 207.625 62.5357 221.554 63.75 235.482C65.0357 235.393 66.3036 235.304 67.5893 235.214C67.125 235.214 68.6786 205.893 68.8036 203.554C68.9822 200.304 69.1429 196.982 68.6072 193.804Z" fill="url(#paint20_linear_13_3350)"/>
<path d="M45.1786 217.911C38.2857 222.304 18.8036 228.286 17.3214 213.446C17.0179 210.429 18.2679 207.393 20.1429 205.214C22.3572 202.625 25.0357 201.571 27.8036 200.143C30.8929 198.554 33.7857 196.446 36.9107 194.875C43.1786 191.714 49.6607 189.196 56.1607 186.696C58.9822 185.607 62.25 184.553 64.8036 186.304C67.6072 188.214 68.1607 192.804 66.9464 196.232C65.7322 199.661 63.1607 202.232 60.6964 204.643C55.7679 209.464 50.8214 214.321 45.1786 217.911Z" fill="url(#paint21_linear_13_3350)"/>
<path d="M53.7501 239.108C49.8215 240.715 45.7143 240.536 41.6072 241.25C44.8215 239.643 48.5715 238.215 50.8929 235.179C46.9286 230.429 43.5536 224.893 39.0358 220.75C37.2501 220.304 35.375 220.09 33.4286 220.197C16.875 221.09 10.8036 241.822 10.8036 241.822C10.8036 241.822 14.9643 247.75 36.0001 247.447C39.9643 247.393 43.3215 247.161 46.1786 246.804C48.8393 244.375 51.4822 241.929 53.7501 239.108Z" fill="#00364F"/>
<path d="M61.1964 241.804C61.1786 241.018 52.4643 224.108 39.0357 220.733C43.5536 224.875 46.9286 230.411 50.8929 235.161C48.5714 238.197 44.8214 239.625 41.6072 241.232C45.7143 240.518 49.8214 240.697 53.75 239.09C51.4822 241.911 48.8393 244.357 46.1786 246.786C58.4464 245.322 61.1964 241.804 61.1964 241.804Z" fill="url(#paint22_linear_13_3350)"/>
<path d="M87.5 235.714C86.9821 235.375 86.4821 235.036 86.2857 234.536C84.4464 233.375 79.7143 230.732 78.75 233.071C77.5357 235.982 76.75 244.286 76.75 244.286C76.75 244.286 80.9285 244.518 83.125 244.286C85.3214 244.054 88.7143 243.304 93.1071 242.822C95.1071 242.607 96.7857 242.375 97.9285 242C96.5357 238.429 90.8392 237.839 87.5 235.714Z" fill="url(#paint23_linear_13_3350)"/>
<path d="M99.1787 239.643C97.9644 237.447 88.3215 235.5 87.018 235.018C87.018 235.018 86.7323 234.822 86.268 234.536C86.4644 235.036 86.9823 235.375 87.4823 235.714C90.8394 237.839 96.518 238.429 97.893 241.964C99.268 241.518 99.8394 240.822 99.1787 239.643Z" fill="url(#paint24_linear_13_3350)"/>
<path d="M78.3214 145.214C78.3214 145.214 82.8036 149.446 84.1429 150.75C85.4821 152.054 84.3214 154.429 82.5357 155.946C80.6786 157.518 78.5536 157.875 77.4107 157.411C76.2679 156.946 71.4464 152.732 71.4643 152.732C71.4464 152.714 78.3214 145.214 78.3214 145.214Z" fill="url(#paint25_linear_13_3350)"/>
<path d="M76.7858 151.161C74.6608 153.018 71.9822 153.464 70.8394 152.143C69.6787 150.821 70.4822 148.25 72.6072 146.375C74.7322 144.518 77.4108 144.071 78.5537 145.393C79.7144 146.714 78.9108 149.286 76.7858 151.161Z" fill="url(#paint26_linear_13_3350)"/>
<path opacity="0.33" d="M74.4463 147.518C76.6606 147.696 78.8749 147.75 81.0892 147.643C81.982 147.607 83.1427 147.321 83.232 146.429C83.2677 146.054 83.0892 145.696 83.0892 145.321C83.0892 144.071 84.7677 143.679 86.0177 143.625C89.1249 143.518 92.232 143.054 95.2499 142.268C95.8034 142.125 96.5177 141.714 96.3213 141.161C96.232 140.893 95.9284 140.75 95.7499 140.518C94.4463 138.786 97.6963 138.893 98.3749 138.804C100.161 138.571 101.911 137.964 103.464 137.054C103.571 136.982 103.678 136.911 103.714 136.804C103.786 136.554 103.446 136.393 103.178 136.357C100.25 135.964 97.2856 136.589 94.3391 136.411C93.9106 136.393 93.3927 136.268 93.3034 135.839C95.9641 134.357 99.2141 134.036 101.714 132.268C101.839 132.179 101.964 132.071 101.982 131.929C102.018 131.643 101.661 131.5 101.375 131.446C97.5713 130.839 93.6427 131.554 89.8213 131.054C89.8034 130.857 89.7856 130.661 89.7677 130.482C89.2499 130.607 88.732 130.768 88.3392 131.125C87.9463 131.482 87.7499 132.089 87.9999 132.554C88.2499 133.036 88.8749 133.196 89.4284 133.214C90.1427 133.232 92.8213 133.179 92.2856 134.661C90.3034 135.179 88.3392 135.768 86.4106 136.464C85.6606 136.732 84.7677 137.357 85.0713 138.089C85.1963 138.393 85.5177 138.571 85.8213 138.732C86.6785 139.179 87.5356 139.625 88.3927 140.071C88.7499 140.25 89.1427 140.518 89.1427 140.911C89.1427 141.286 88.7677 141.554 88.4284 141.732C84.6963 143.643 80.4106 143.571 76.3392 144C74.7142 144.179 72.6963 144.232 71.2499 145.054C69.8749 145.839 68.7856 148.107 71.2499 148.054C71.9106 148.036 72.5713 147.857 73.1963 148.036" fill="white"/>
<path d="M84.9107 153.643C83.4286 151.321 80.7679 149.804 78.0179 149.714C76.4822 151.929 76.0715 154.875 76.8929 157.429C77.75 160.036 81.4822 165.304 84.8572 163.339C87.6072 161.768 86.25 155.732 84.9107 153.643Z" fill="url(#paint27_linear_13_3350)"/>
<path d="M78.8215 134.018C78.6251 132.268 78.1787 130.464 77.4822 128.804C76.5179 132.75 76.3394 136.911 73.5537 140.536C72.6608 141.786 73.7322 143.036 74.0894 143.929C74.7501 145.571 74.6787 147.214 74.3929 148.857C75.3037 147.929 76.0894 146.857 76.7322 145.732C78.6965 142.196 79.2679 138.018 78.8215 134.018Z" fill="url(#paint28_linear_13_3350)"/>
<path d="M74.1071 143.929C73.75 143.036 72.6786 141.786 73.5714 140.536C76.3571 136.911 76.5357 132.75 77.5 128.804C76.0893 125.429 73.625 122.589 70.1607 121.661C65.3214 120.375 60.1428 123.429 57.4286 127.643C54.4643 132.268 53.0536 138.214 54.9286 143.536C56.75 148.679 61.6071 153.643 67.3571 152.679C70.0536 152.232 72.5 150.804 74.4107 148.839C74.6964 147.214 74.75 145.571 74.1071 143.929Z" fill="url(#paint29_linear_13_3350)"/>
<path d="M77.1429 129.286C77.5179 125.232 75.1072 122.036 71.8215 120.018C70.4643 119.571 69.0357 119.321 67.625 119.25C65.3929 119.125 62.8572 119.375 60.875 120.482C60.1608 120.875 59.375 121.393 58.9643 122.125C58.8215 122.375 58.6072 123.946 58.5893 123.964C58.5893 123.964 50.5179 129.107 52.1429 136.071C53.7679 143.036 55.3036 147.679 55.3036 147.679C55.3036 147.679 60.8572 150.179 61.9465 148.768C63.0357 147.357 68.9822 144.625 68.9822 144.625C68.9822 144.625 68.3929 143.393 67.6786 140.536C66.9643 137.679 69.1072 135.357 70.3036 136.071C71.7857 136.946 70.4643 139.607 71.9107 140.536C72.3929 138.304 73.0714 136.071 74.9286 134.625C75.2857 134.339 75.625 134.089 75.9643 133.839C76.6072 131.786 77.3036 129.75 78.5714 127.857C78.0357 128.393 77.5 128.75 77.1429 129.286Z" fill="url(#paint30_linear_13_3350)"/>
<path d="M81.1785 126.732C80.625 126.071 79.7142 126.339 79.1071 125.875C79.0178 125.804 78.9464 125.75 78.8928 125.679C78.5178 125.304 78.5714 124.982 78.1785 124.518C77.2321 123.375 76.3571 122.393 75.0892 121.571C74.0714 120.911 72.9642 120.393 71.8214 120.018C75.1071 122.036 77.5178 125.232 77.1428 129.286C77.5 128.75 78.0357 128.393 78.5714 127.857C77.3035 129.75 76.6071 131.786 75.9642 133.839C77.7142 132.554 79.2678 131.554 80.6607 129.571C81.25 128.714 81.8392 127.536 81.1785 126.732Z" fill="url(#paint31_linear_13_3350)"/>
<path d="M81.7856 204.464C79.1963 207.911 76.1249 211.018 72.857 213.804C73.2142 213.518 73.5534 213.25 73.9106 212.964C74.4463 219.768 75.857 226.679 76.9642 232.304C77.1784 233.393 77.4463 234.554 78.1249 235.197C78.7856 235.839 79.6784 235.804 80.482 235.75C81.4284 235.697 82.357 235.625 83.3034 235.572C82.7142 226.929 82.1606 218.232 82.1606 209.643C82.3213 207.857 82.1427 206.25 81.7856 204.464Z" fill="url(#paint32_linear_13_3350)"/>
<path d="M86.8034 191.589C79.107 199.803 69.3749 205.911 58.9106 210.178C66.5892 208.571 74.0891 206.964 81.5891 204.464C81.5891 204.589 81.5891 204.625 81.5891 204.696C81.6427 204.625 81.7141 204.536 81.7677 204.464C82.1249 206.25 82.3034 207.857 82.1249 209.643C82.1249 218.232 82.6784 226.928 83.2677 235.571C84.732 235.482 86.1963 235.375 87.6606 235.286C87.1963 235.286 88.732 207.839 88.857 205.643C89.0177 202.589 89.1784 199.482 88.6427 196.5C88.3391 194.714 87.7141 192.964 86.8034 191.589Z" fill="url(#paint33_linear_13_3350)"/>
<path d="M86.8035 191.589C86.2142 190.679 85.5 189.946 84.6607 189.464C84.125 189.161 83.5892 188.982 83.0714 188.893C82.4285 188.714 81.75 188.625 81.0535 188.607C64.6964 195.768 48.9464 204.607 32.0179 210.518C30.8572 212.357 30.1965 214.518 30.4465 216.661C32.125 231.518 54.3393 225.518 62.2143 221.125C65.9821 219.018 69.4643 216.5 72.8393 213.804C76.0357 211.089 79.0357 208.054 81.5892 204.696C81.5892 204.625 81.5892 204.589 81.5892 204.464C74.0892 206.964 66.5893 208.571 58.9107 210.179C69.375 205.911 79.1071 199.804 86.8035 191.589Z" fill="url(#paint34_linear_13_3350)"/>
<path d="M74.7322 189.929C67.3393 192.429 59.9286 194.946 52.7858 198.107C49.2322 199.679 45.9286 201.786 42.4107 203.375C39.25 204.804 36.2143 205.857 33.6786 208.447C33.0714 209.072 32.5 209.768 32.0357 210.536C48.9643 204.625 64.7143 195.786 81.0715 188.625C78.9822 188.589 76.7501 189.25 74.7322 189.929Z" fill="url(#paint35_linear_13_3350)"/>
<path d="M72.125 155.929C72.1071 156.821 72.0536 157.696 71.9286 158.571C71.4286 162.679 70 166.661 68.8214 170.661C67.3393 175.625 66.2321 180.714 65.4821 185.857C65.0893 188.554 64.8036 191.268 64.6071 194C64.5 195.482 64.4286 196.982 64.3214 198.464C64.1429 201.054 63.8571 203.643 63.1429 206.125C61.2321 212.768 56.2143 216.946 49.375 217.429C40.8214 218.018 32.1964 217.375 23.8214 215.518C19.7321 214.607 14.3571 212.536 13.8214 207.768C13.25 202.589 15.6429 195.696 17.0179 190.75C20.0536 179.929 24.8929 169.589 31.3214 160.375C38.75 149.732 49.6964 139.643 63.6786 142.5C69.5893 143.696 72.1964 150.5 72.125 155.929Z" fill="url(#paint36_linear_13_3350)"/>
<path d="M71.9285 158.571C71.4285 162.679 70 166.661 68.8214 170.661C67.3392 175.625 66.2321 180.714 65.4821 185.857C65.0893 188.554 64.8035 191.268 64.6071 194C64.5 195.482 64.4285 196.982 64.3214 198.464L51.7143 204.929L58.5714 198.286C58.5714 198.286 54.9285 197.571 54.5714 197.446C54.2143 197.321 59.9285 194.589 60.4107 194.464C60.8928 194.339 49.9286 187.732 49.9286 187.732L52.9107 184.75L46.7143 177.911C46.7143 177.911 67.2678 161.768 71.9285 158.571Z" fill="url(#paint37_linear_13_3350)"/>
<path d="M83.625 159.589C82.3571 159.857 81.1071 160.143 79.8392 160.411C80.2321 166.857 80.125 173.357 79.5357 179.786C80.1785 181.643 81.0178 183.411 82.1428 184.982C82.9821 176.536 83.2678 168.054 83.625 159.589Z" fill="url(#paint38_linear_13_3350)"/>
<path d="M64.9643 146.375C63.9643 146.286 62.9107 146.446 61.9286 146.768C62.9286 146.482 63.9643 146.339 64.9643 146.375Z" fill="url(#paint39_linear_13_3350)"/>
<path d="M63.9285 153.75C67.3214 161.607 69.6428 169.464 73.7499 176.964C75.4106 179.964 77.8571 183.732 81.3571 183.803C80.6249 182.553 80.0178 181.196 79.5356 179.803C79.5356 179.821 79.5356 179.839 79.5356 179.839C76.9821 171.643 74.1428 163.518 71.0178 155.518C70.1249 153.214 69.9107 149.429 68.1249 147.714C67.2499 146.875 66.1428 146.464 64.9821 146.357C63.9642 146.321 62.9464 146.464 61.9464 146.75C61.0357 147.054 60.1785 147.518 59.4821 148.071C58.8928 148.536 58.3928 149.071 57.9285 149.661C60.5535 149.107 62.8035 151.357 63.9285 153.75Z" fill="url(#paint40_linear_13_3350)"/>
<path d="M88.8929 182.125C88.1251 174.393 87.3393 166.679 86.5715 158.946C85.5893 159.161 84.6072 159.375 83.6429 159.589C83.2858 168.054 83.0001 176.536 82.1608 185C81.8751 184.607 81.6251 184.214 81.3751 183.804C77.8751 183.732 75.4286 179.964 73.7679 176.964C69.6608 169.464 67.3393 161.607 63.9465 153.75C62.8393 151.357 60.5715 149.107 57.9465 149.679C57.1429 150.714 56.5179 151.911 56.0893 153.143C53.8036 159.607 57.0893 169.375 60.125 175.286C63.5357 181.911 69.0715 187.518 75.8572 190.643C77.8572 191.572 80.0179 192.304 82.2322 192.268C84.4465 192.232 86.7322 191.286 87.9643 189.447C89.3393 187.357 89.1429 184.625 88.8929 182.125Z" fill="url(#paint41_linear_13_3350)"/>
<path d="M37.75 -5.39286L24.7857 36.0179L16.8036 40.0179L27.2857 14.75L37.75 -5.39286Z" fill="url(#paint42_linear_13_3350)"/>
<path d="M14.0714 43.75L-0.160698 48.2143V36.5358L0.642873 36.3572C5.07144 38.9108 9.55358 41.3215 14.0714 43.75Z" fill="#00364F"/>
<path d="M56.2143 23.5536L75.1786 0.839317H79.1786L65.2144 21.0536L83.1787 21.5536L92.6608 4.58931L88.1787 19.5536L118.947 11.0715C118.947 11.0715 85.1608 27.0357 83.6608 28.0357C82.1608 29.0357 64.1965 28.0357 64.1965 28.0357L14.0714 43.75C9.55359 41.3214 5.07144 38.9107 0.64286 36.3393L56.2143 23.5536Z" fill="#00364F"/>
<path d="M101.643 -19.2321L173 -10.7143C172.464 -8.58931 172.357 -6.28574 171.732 -4.25003C170.393 -5.58932 168.911 -6.91074 167.911 -8.73217C166.25 -7.07146 165.411 -4.91075 164.75 -2.75004C162.429 -5.25003 159.089 -6.25003 156.429 -8.23217C154.607 -5.57146 152.107 -3.91075 149.447 -1.91075C148.286 -1.07147 147.947 1.24996 147.125 0.749956C145.464 -0.250042 144.125 -2.57146 143.964 -4.91075C142.464 -3.25004 140.643 -2.08932 138.804 -0.589327C136 1.8571 132.411 3.21424 129.572 5.53566C129.536 4.03567 129.554 2.78567 129.661 2.08924C128.107 5.57138 126.304 8.92851 124.411 12.2321L119.982 13.2142C119.697 12.6606 119.429 12.1249 119.179 11.5714C113.786 0.785671 108.482 -9.64288 101.643 -19.2321Z" fill="url(#paint43_linear_13_3350)"/>
<path d="M75.1786 -14.375L79.6607 -21.8571L101.625 -19.2321C108.464 -9.64285 113.768 0.785727 119.161 11.5714C119.411 12.125 119.679 12.6786 119.964 13.2143L113.089 14.75V21.0536L107.607 23.5536L95.625 21.0536L91.625 14.75L88.125 19.5536L81.1429 10.5714L75.1786 4.5893L67.6965 -1.17856L75.1786 -14.375Z" fill="url(#paint44_linear_13_3350)"/>
<path d="M143.946 -4.91071C144.107 -2.58929 145.446 -0.250004 147.107 0.749995C147.946 1.24999 148.268 -1.07143 149.429 -1.91072C152.089 -3.91071 154.589 -5.57143 156.411 -8.23214C159.071 -6.23214 162.393 -5.23214 164.732 -2.75C165.393 -4.91071 166.232 -7.07143 167.893 -8.73214C168.893 -6.91071 170.393 -5.57143 171.714 -4.25C172.321 -6.30357 172.446 -8.58928 172.982 -10.7143L183.964 -9.41071L185.964 -2.41072L180.982 1.08928V6.82142H174L169.018 3.57142L166.589 7.82142C163.643 5.78571 160.661 3.87499 157.607 2.07142C157.482 4.33928 157.625 6.62499 158 8.87499L149.554 6.82142L144.571 14.7321L148.571 17.0536L140.589 21.0535L137.089 14.75L130.143 16.5357C130.036 14.8928 129.679 9.39284 129.607 5.53571C132.446 3.23214 136.036 1.85714 138.839 -0.571432C140.625 -2.07143 142.464 -3.25 143.946 -4.91071Z" fill="#00364F"/>
<path d="M114.357 -4.73213C112.197 -6.55356 109.036 -7.55356 107.875 -10.2143C104.375 -7.71428 100.893 -5.55356 97.893 -2.39285C93.7323 -3.23213 89.7502 -4.71428 85.4109 -5.39285C85.2501 -3.23213 84.9109 -0.910702 85.0716 1.26787C80.2501 1.10716 75.4287 0.428585 70.6073 0.607157C68.0001 -5.92856 67.1608 -12.8036 65.8751 -19.5893L117.804 -15.5893C116.75 -11.6607 116.197 -7.64285 114.518 -3.87499C114.518 -4.23213 114.518 -4.57142 114.357 -4.73213Z" fill="url(#paint45_linear_13_3350)"/>
<path d="M36.7679 -21.8571L65.8751 -19.625C67.1608 -12.8393 68.0001 -5.96428 70.6072 0.571444C75.4286 0.410728 80.2501 1.07144 85.0715 1.23216C84.9108 -0.928556 85.2322 -3.24999 85.4108 -5.42856C89.7322 -4.76785 93.7323 -3.26785 97.893 -2.42856C100.893 -5.58928 104.375 -7.74999 107.875 -10.25C109.036 -7.58928 112.197 -6.58928 114.357 -4.76785C114.518 -4.60713 114.518 -4.26785 114.518 -3.92856C116.197 -7.69642 116.75 -11.7321 117.804 -15.6429L134.072 -14.3929L137.072 -4.4107L130.589 -1.9107H123.107V2.0893V6.82145H114.625V1.5893L108.643 6.82145L103.125 1.5893V9.07145L95.643 6.82145L97.643 14.7322L90.6608 17.0536L81.1787 14.7322V6.83931L75.1786 11.5715L72.6786 17.0536H68.4108C68.5715 14.1607 68.5001 11.2322 68.2679 8.39288C66.2143 9.53574 64.3215 10.75 62.3215 11.7679L60.7143 9.57145L52.7322 11.0715L46.75 9.07145L42.75 0.589302L36.2679 1.3393L34.2679 -7.39285L36.7679 -21.8571Z" fill="#00364F"/>
<path d="M11.2322 12.0536C12.2322 9.23215 13.3929 6.57143 14.2322 3.75C15.7322 6.25 16.0536 9.07143 17.0536 11.7321C21.7143 6.25 27.8572 2.41071 34.1786 -0.910721C36.1786 1.25 38.4286 3.07143 40.8394 4.66071L39.2322 8.08929L41.7322 14.75L33.7501 12.5714V23.5536L20.2858 19.5536L11.8036 28.0357H2.51788L-2.42855 25.7679C1.1786 20.0357 3.50003 12.9464 5.57146 6.57143C7.25003 8.73215 9.73218 9.89286 11.2322 12.0536Z" fill="url(#paint46_linear_13_3350)"/>
<path d="M-9.14286 -14.375H75.1785L66.4821 0.946421C63.6964 -1.2143 60.5892 -3.00001 57.9642 -5.25001C57.9642 -2.53573 58.9285 0.196419 59.8571 2.78571L49.7321 0.0892763L42.75 0.589277L40.8571 4.64285C38.4464 3.05356 36.1964 1.24999 34.1964 -0.928581C27.875 2.39285 21.7143 6.21428 17.0714 11.7143C16.0536 9.07143 15.7321 6.23214 14.2321 3.74999C13.3928 6.57143 12.2321 9.23214 11.2321 12.0536C9.73213 9.89286 7.23213 8.73214 5.57142 6.57143C3.49999 12.9464 1.17857 20.0357 -2.42857 25.7679L-11.6429 21.5536L-9.14286 -14.375Z" fill="#00364F"/>
<path d="M72.9287 37.6786C74.4287 35.3571 75.2501 32.8571 75.9287 30.1964C79.0894 33.3571 82.0894 36.6786 84.9108 40.1786C90.9644 37.8928 97.1787 36.4107 103.232 34.4643L107.982 39.5893L104.143 43.5893L93.6608 45.8036L94.1608 52.5714L83.1787 50.5714L74.6965 52.5714L67.7144 42.5893L64.2144 39.5893L61.2144 45.7857H54.2858C53.5894 42.5893 52.8751 39.4821 52.6608 36.2857C57.5001 34.0536 62.018 31.3036 66.9465 29.2143C68.7858 32.1786 71.1073 34.6786 72.9287 37.6786Z" fill="url(#paint47_linear_13_3350)"/>
<path d="M32.0179 31.5179C35.3393 29.8572 37.5 26.8572 39.1608 23.6965C40.6608 27.1965 41.6608 30.8393 43.6429 34.1786C44.6429 31.5179 45.9643 29.1965 46.9643 26.5357C47.25 30.3572 48.25 34.0357 49.6608 37.625C48.7679 40 48.1786 42.4465 47.8215 44.9465L44.2143 39.5893L40.2143 42.5893L38.7143 37.6072H33.7322L23.3036 41.0715L13.8214 33.5715L10.8036 25.5893L15.1429 22.7143C20.8393 25.4822 26.3393 28.8036 32.0179 31.5179Z" fill="url(#paint48_linear_13_3350)"/>
<path d="M43.6607 34.1787C41.6607 30.8572 40.6607 27.1965 39.1786 23.6965C37.5178 26.8572 35.3571 29.8572 32.0357 31.5179C26.3571 28.8036 20.8392 25.4822 15.1428 22.7322L23.3035 17.3215L32.7857 23.1072L35.7857 21.1072L48.4286 17.3215L52.75 22.0894H60.2322H64.2322C66.2322 26.0358 72.2143 22.0894 72.2143 22.0894H79.7679L82.6965 28.5894L99.6608 30.5894L103.25 34.4465C97.1965 36.3929 90.9822 37.8751 84.9286 40.1608C82.1072 36.6608 79.1072 33.3394 75.9465 30.1786C75.2857 32.8394 74.4465 35.3394 72.9465 37.6608C71.125 34.6608 68.7857 32.1786 66.9643 29.1786C62.0357 31.2679 57.5179 34.0179 52.6786 36.2501C52.6071 35.1787 52.5893 34.1072 52.6607 33.0001C52.6607 32.8394 52.3214 32.6608 52.1607 32.5001C51.1786 34.1429 50.3571 35.8394 49.7143 37.5894C48.3036 34.0179 47.2857 30.3215 47.0178 26.5001C46 29.1965 44.6607 31.5179 43.6607 34.1787Z" fill="#00364F"/>
</g>
<defs>
<linearGradient id="paint0_linear_13_3350" x1="125" y1="-14.1072" x2="125" y2="225.906" gradientUnits="userSpaceOnUse">
<stop offset="0.00510204" stop-color="#00688D"/>
<stop offset="0.2449" stop-color="#4FA1A9"/>
<stop offset="0.4898" stop-color="#FF7F8C"/>
<stop offset="0.7806" stop-color="#FF9565"/>
<stop offset="0.9694" stop-color="#FFCFB9"/>
</linearGradient>
<linearGradient id="paint1_linear_13_3350" x1="63.2486" y1="189.916" x2="63.1409" y2="109.53" gradientUnits="userSpaceOnUse">
<stop stop-color="#FF7F8C"/>
<stop offset="0.4161" stop-color="#FF9565"/>
<stop offset="1" stop-color="#FFFFB9"/>
</linearGradient>
<linearGradient id="paint2_linear_13_3350" x1="195.205" y1="251.708" x2="188.997" y2="138.645" gradientUnits="userSpaceOnUse">
<stop offset="0.4898" stop-color="#FF7F8C"/>
<stop offset="0.7806" stop-color="#FF9565"/>
<stop offset="1" stop-color="#FFFFB9"/>
</linearGradient>
<linearGradient id="paint3_linear_13_3350" x1="125" y1="286.785" x2="125" y2="21.5147" gradientUnits="userSpaceOnUse">
<stop offset="0.00510204" stop-color="#0068B6"/>
<stop offset="0.2245" stop-color="#4FA1A9"/>
<stop offset="0.4898" stop-color="#FF7F8C"/>
<stop offset="0.7806" stop-color="#FF9565"/>
<stop offset="0.9694" stop-color="#FFCFB9"/>
</linearGradient>
<linearGradient id="paint4_linear_13_3350" x1="24.1934" y1="135.13" x2="254.574" y2="138.345" gradientUnits="userSpaceOnUse">
<stop offset="0.0510204" stop-color="#0F4565"/>
<stop offset="0.4898" stop-color="#FF7F8C"/>
<stop offset="0.7806" stop-color="#FF9565"/>
<stop offset="0.9694" stop-color="#FFCFB9"/>
</linearGradient>
<linearGradient id="paint5_linear_13_3350" x1="11.9206" y1="203.424" x2="241.26" y2="203.424" gradientUnits="userSpaceOnUse">
<stop offset="0.0510204" stop-color="#0F4565"/>
<stop offset="0.6916" stop-color="#FF7F8C"/>
</linearGradient>
<linearGradient id="paint6_linear_13_3350" x1="190.017" y1="147.378" x2="189.763" y2="179.475" gradientUnits="userSpaceOnUse">
<stop stop-color="#FF7F8C"/>
<stop offset="0.3471" stop-color="#FF9565"/>
<stop offset="1" stop-color="#FFFFB9"/>
</linearGradient>
<linearGradient id="paint7_linear_13_3350" x1="168.582" y1="143.499" x2="168.315" y2="177.339" gradientUnits="userSpaceOnUse">
<stop stop-color="#FF7F8C"/>
<stop offset="0.3471" stop-color="#FF9565"/>
<stop offset="1" stop-color="#FFFFB9"/>
</linearGradient>
<linearGradient id="paint8_linear_13_3350" x1="226.877" y1="23.0533" x2="222.949" y2="99.1247" gradientUnits="userSpaceOnUse">
<stop stop-color="#FF8188" stop-opacity="0"/>
<stop offset="0.3471" stop-color="#FF9565" stop-opacity="0.3"/>
<stop offset="1" stop-color="#FFFFB9"/>
</linearGradient>
<linearGradient id="paint9_linear_13_3350" x1="195.655" y1="143.713" x2="195.387" y2="177.553" gradientUnits="userSpaceOnUse">
<stop stop-color="#FF7F8C"/>
<stop offset="0.3471" stop-color="#FF9565"/>
<stop offset="1" stop-color="#FFFFB9"/>
</linearGradient>
<linearGradient id="paint10_linear_13_3350" x1="170.837" y1="143.517" x2="170.569" y2="177.356" gradientUnits="userSpaceOnUse">
<stop stop-color="#FF7F8C"/>
<stop offset="0.3471" stop-color="#FF9565"/>
<stop offset="1" stop-color="#FFFFB9"/>
</linearGradient>
<linearGradient id="paint11_linear_13_3350" x1="-1.03175" y1="228.268" x2="105.599" y2="228.268" gradientUnits="userSpaceOnUse">
<stop offset="0.0510204" stop-color="#0F4565"/>
<stop offset="1" stop-color="#A1687D"/>
</linearGradient>
<linearGradient id="paint12_linear_13_3350" x1="83.2519" y1="244.598" x2="25.7518" y2="304.241" gradientUnits="userSpaceOnUse">
<stop offset="0.0510204" stop-color="#0F4565"/>
<stop offset="1" stop-color="#A1687D"/>
</linearGradient>
<linearGradient id="paint13_linear_13_3350" x1="31.2441" y1="235.913" x2="157.218" y2="235.913" gradientUnits="userSpaceOnUse">
<stop offset="0.0510204" stop-color="#0F4565"/>
<stop offset="1" stop-color="#A1687D"/>
</linearGradient>
<linearGradient id="paint14_linear_13_3350" x1="109.421" y1="236.027" x2="206.25" y2="236.027" gradientUnits="userSpaceOnUse">
<stop offset="0.0510204" stop-color="#0F4565"/>
<stop offset="1" stop-color="#A1687D"/>
</linearGradient>
<linearGradient id="paint15_linear_13_3350" x1="128.725" y1="221.093" x2="114.134" y2="251.118" gradientUnits="userSpaceOnUse">
<stop stop-color="#A1687D"/>
<stop offset="0.949" stop-color="#0F4565"/>
</linearGradient>
<linearGradient id="paint16_linear_13_3350" x1="121.188" y1="239.822" x2="111.554" y2="261.2" gradientUnits="userSpaceOnUse">
<stop stop-color="#A1687D"/>
<stop offset="0.949" stop-color="#0F4565"/>
</linearGradient>
<linearGradient id="paint17_linear_13_3350" x1="56.5896" y1="238.006" x2="72.0859" y2="238.006" gradientUnits="userSpaceOnUse">
<stop offset="0.0510204" stop-color="#0F4565"/>
<stop offset="1" stop-color="#A1687D"/>
</linearGradient>
<linearGradient id="paint18_linear_13_3350" x1="65.2142" y1="237.162" x2="75.1112" y2="237.162" gradientUnits="userSpaceOnUse">
<stop offset="0.0510204" stop-color="#0F4565"/>
<stop offset="0.4898" stop-color="#FF7F8C"/>
<stop offset="0.9694" stop-color="#FFCFB9"/>
</linearGradient>
<linearGradient id="paint19_linear_13_3350" x1="53.3996" y1="210.823" x2="71.5038" y2="210.823" gradientUnits="userSpaceOnUse">
<stop offset="0.0510204" stop-color="#0F4565"/>
<stop offset="1" stop-color="#A1687D"/>
</linearGradient>
<linearGradient id="paint20_linear_13_3350" x1="57.4214" y1="210.56" x2="77.6806" y2="210.56" gradientUnits="userSpaceOnUse">
<stop offset="0.0510204" stop-color="#0F4565"/>
<stop offset="0.5942" stop-color="#FF7F8C"/>
<stop offset="0.9694" stop-color="#FFCFB9"/>
</linearGradient>
<linearGradient id="paint21_linear_13_3350" x1="17.2781" y1="204.139" x2="67.5341" y2="204.139" gradientUnits="userSpaceOnUse">
<stop stop-color="#00394A"/>
<stop offset="0.3663" stop-color="#0F4565"/>
<stop offset="0.6573" stop-color="#FF7F8C"/>
<stop offset="0.9694" stop-color="#FFCFB9"/>
</linearGradient>
<linearGradient id="paint22_linear_13_3350" x1="36.1976" y1="233.569" x2="69.8422" y2="234.65" gradientUnits="userSpaceOnUse">
<stop offset="0.0510204" stop-color="#0F4565"/>
<stop offset="0.4898" stop-color="#FF7F8C"/>
<stop offset="0.9694" stop-color="#FFCFB9"/>
</linearGradient>
<linearGradient id="paint23_linear_13_3350" x1="76.7362" y1="238.25" x2="97.9104" y2="238.25" gradientUnits="userSpaceOnUse">
<stop offset="0.0510204" stop-color="#0F4565"/>
<stop offset="1" stop-color="#A1687D"/>
</linearGradient>
<linearGradient id="paint24_linear_13_3350" x1="76.5105" y1="238.252" x2="104.895" y2="238.252" gradientUnits="userSpaceOnUse">
<stop offset="0.0510204" stop-color="#0F4565"/>
<stop offset="0.4898" stop-color="#FF7F8C"/>
<stop offset="0.9694" stop-color="#FFCFB9"/>
</linearGradient>
<linearGradient id="paint25_linear_13_3350" x1="73.9221" y1="158.291" x2="84.1738" y2="145.426" gradientUnits="userSpaceOnUse">
<stop offset="0.0510204" stop-color="#0F4565"/>
<stop offset="0.4898" stop-color="#FF7F8C"/>
<stop offset="0.9694" stop-color="#FFCFB9"/>
</linearGradient>
<linearGradient id="paint26_linear_13_3350" x1="71.0227" y1="152.796" x2="81.9751" y2="140.772" gradientUnits="userSpaceOnUse">
<stop offset="0.0510204" stop-color="#0F4565"/>
<stop offset="1" stop-color="#A1687D"/>
</linearGradient>
<linearGradient id="paint27_linear_13_3350" x1="76.3689" y1="156.488" x2="86.6288" y2="157.124" gradientUnits="userSpaceOnUse">
<stop stop-color="#FF7F8C"/>
<stop offset="0.3471" stop-color="#FF9565"/>
<stop offset="1" stop-color="#FFFFB9"/>
</linearGradient>
<linearGradient id="paint28_linear_13_3350" x1="63.3017" y1="138.826" x2="81.8054" y2="138.826" gradientUnits="userSpaceOnUse">
<stop stop-color="#FF7F8C"/>
<stop offset="0.3471" stop-color="#FF9565"/>
<stop offset="1" stop-color="#FFFFB9"/>
</linearGradient>
<linearGradient id="paint29_linear_13_3350" x1="58.7783" y1="137.087" x2="90.7195" y2="137.087" gradientUnits="userSpaceOnUse">
<stop stop-color="#FF7F8C"/>
<stop offset="0.3471" stop-color="#FF9565"/>
<stop offset="1" stop-color="#FFFFB9"/>
</linearGradient>
<linearGradient id="paint30_linear_13_3350" x1="68.8148" y1="133.805" x2="94.9376" y2="131.87" gradientUnits="userSpaceOnUse">
<stop stop-color="#00394A"/>
<stop offset="0.3663" stop-color="#0F4565"/>
<stop offset="0.6573" stop-color="#FF7F8C"/>
<stop offset="0.9694" stop-color="#FFCFB9"/>
</linearGradient>
<linearGradient id="paint31_linear_13_3350" x1="66.7384" y1="130.995" x2="84.1194" y2="121.114" gradientUnits="userSpaceOnUse">
<stop offset="0.0510204" stop-color="#0F4565"/>
<stop offset="0.4898" stop-color="#FF7F8C"/>
<stop offset="0.7806" stop-color="#FF9565"/>
<stop offset="0.9694" stop-color="#FFCFB9"/>
</linearGradient>
<linearGradient id="paint32_linear_13_3350" x1="81.1257" y1="220.954" x2="113.983" y2="199.049" gradientUnits="userSpaceOnUse">
<stop offset="0.0510204" stop-color="#0F4565"/>
<stop offset="0.4898" stop-color="#FF7F8C"/>
<stop offset="0.7806" stop-color="#FF9565"/>
<stop offset="0.9694" stop-color="#FFCFB9"/>
</linearGradient>
<linearGradient id="paint33_linear_13_3350" x1="56.0102" y1="231.147" x2="126.962" y2="190.909" gradientUnits="userSpaceOnUse">
<stop offset="0.0510204" stop-color="#0F4565"/>
<stop offset="0.4898" stop-color="#FF7F8C"/>
<stop offset="0.9694" stop-color="#FFCFB9"/>
</linearGradient>
<linearGradient id="paint34_linear_13_3350" x1="47.4067" y1="215.71" x2="143.24" y2="168.329" gradientUnits="userSpaceOnUse">
<stop stop-color="#00394A"/>
<stop offset="0.3663" stop-color="#0F4565"/>
<stop offset="0.6573" stop-color="#FF7F8C"/>
<stop offset="0.9694" stop-color="#FFCFB9"/>
</linearGradient>
<linearGradient id="paint35_linear_13_3350" x1="39.0505" y1="202.558" x2="118.689" y2="188.504" gradientUnits="userSpaceOnUse">
<stop offset="0.0510204" stop-color="#0F4565"/>
<stop offset="0.4898" stop-color="#FF7F8C"/>
<stop offset="0.7806" stop-color="#FF9565"/>
<stop offset="0.9694" stop-color="#FFCFB9"/>
</linearGradient>
<linearGradient id="paint36_linear_13_3350" x1="38.5439" y1="185.293" x2="151.812" y2="141.636" gradientUnits="userSpaceOnUse">
<stop stop-color="#00394A"/>
<stop offset="0.3663" stop-color="#0F4565"/>
<stop offset="0.6573" stop-color="#FF7F8C"/>
<stop offset="0.9694" stop-color="#FFCFB9"/>
</linearGradient>
<linearGradient id="paint37_linear_13_3350" x1="39.4726" y1="190.295" x2="90.544" y2="170.772" gradientUnits="userSpaceOnUse">
<stop offset="0.0510204" stop-color="#0F4565"/>
<stop offset="0.4898" stop-color="#FF7F8C"/>
<stop offset="0.9694" stop-color="#FFCFB9"/>
</linearGradient>
<linearGradient id="paint38_linear_13_3350" x1="76.0693" y1="173.926" x2="107.366" y2="166.191" gradientUnits="userSpaceOnUse">
<stop offset="0.0510204" stop-color="#0F4565"/>
<stop offset="0.4898" stop-color="#FF7F8C"/>
<stop offset="0.7806" stop-color="#FF9565"/>
<stop offset="0.9694" stop-color="#FFCFB9"/>
</linearGradient>
<linearGradient id="paint39_linear_13_3350" x1="61.3279" y1="147.076" x2="67.5261" y2="145.544" gradientUnits="userSpaceOnUse">
<stop offset="0.0510204" stop-color="#0F4565"/>
<stop offset="0.4898" stop-color="#FF7F8C"/>
<stop offset="0.7806" stop-color="#FF9565"/>
<stop offset="0.9694" stop-color="#FFCFB9"/>
</linearGradient>
<linearGradient id="paint40_linear_13_3350" x1="52.4031" y1="170.031" x2="95.4846" y2="159.383" gradientUnits="userSpaceOnUse">
<stop offset="0.0510204" stop-color="#0F4565"/>
<stop offset="0.4898" stop-color="#FF7F8C"/>
<stop offset="0.9694" stop-color="#FFCFB9"/>
</linearGradient>
<linearGradient id="paint41_linear_13_3350" x1="64.7549" y1="172.308" x2="92.0791" y2="165.879" gradientUnits="userSpaceOnUse">
<stop offset="0.0510204" stop-color="#0F4565"/>
<stop offset="0.4898" stop-color="#FF7F8C"/>
<stop offset="0.9694" stop-color="#FFCFB9"/>
</linearGradient>
<linearGradient id="paint42_linear_13_3350" x1="52.3851" y1="54.8059" x2="15.8318" y2="0.216603" gradientUnits="userSpaceOnUse">
<stop stop-color="#592731"/>
<stop offset="1" stop-color="#7E4D00"/>
</linearGradient>
<linearGradient id="paint43_linear_13_3350" x1="138.275" y1="-9.11388" x2="150.06" y2="62.9359" gradientUnits="userSpaceOnUse">
<stop offset="0.0510204" stop-color="#0F4565"/>
<stop offset="1" stop-color="#A1687D"/>
</linearGradient>
<linearGradient id="paint44_linear_13_3350" x1="94.2148" y1="8.74319" x2="100.375" y2="53.741" gradientUnits="userSpaceOnUse">
<stop offset="0.0510204" stop-color="#0F4565"/>
<stop offset="1" stop-color="#A1687D"/>
</linearGradient>
<linearGradient id="paint45_linear_13_3350" x1="115.892" y1="24.8687" x2="61.9634" y2="-55.6701" gradientUnits="userSpaceOnUse">
<stop offset="0.0510204" stop-color="#0F4565"/>
<stop offset="1" stop-color="#A1687D"/>
</linearGradient>
<linearGradient id="paint46_linear_13_3350" x1="17.3477" y1="-2.79154" x2="21.901" y2="41.1349" gradientUnits="userSpaceOnUse">
<stop offset="0.0510204" stop-color="#0F4565"/>
<stop offset="1" stop-color="#A1687D"/>
</linearGradient>
<linearGradient id="paint47_linear_13_3350" x1="76.4858" y1="14.7077" x2="87.4674" y2="82.4721" gradientUnits="userSpaceOnUse">
<stop offset="0.0510204" stop-color="#0F4565"/>
<stop offset="1" stop-color="#A1687D"/>
</linearGradient>
<linearGradient id="paint48_linear_13_3350" x1="26.2446" y1="16.8081" x2="40.4403" y2="66.3592" gradientUnits="userSpaceOnUse">
<stop offset="0.0510204" stop-color="#0F4565"/>
<stop offset="1" stop-color="#A1687D"/>
</linearGradient>
<clipPath id="clip0_13_3350">
<rect width="250" height="250" rx="35" fill="white"/>
</clipPath>
</defs>
</svg>
