<?xml version="1.0" encoding="utf-8"?>
<!-- Generator: Adobe Illustrator 19.0.0, SVG Export Plug-In . SVG Version: 6.00 Build 0)  -->
<svg version="1.1" xmlns="http://www.w3.org/2000/svg" xmlns:xlink="http://www.w3.org/1999/xlink" x="0px" y="0px" width="1400px"
	 height="1400px" viewBox="0 0 1400 1400" enable-background="new 0 0 1400 1400" xml:space="preserve">
<g id="BACKGROUND">
	<g id="XMLID_425_">
		<defs>
			<rect id="XMLID_489_" x="0" width="1400" height="1400"/>
		</defs>
		<use xlink:href="#XMLID_489_"  overflow="visible" fill="#00364F"/>
		<clipPath id="XMLID_7_">
			<use xlink:href="#XMLID_489_"  overflow="visible"/>
		</clipPath>
		<linearGradient id="XMLID_22_" gradientUnits="userSpaceOnUse" x1="699.9999" y1="-79.0006" x2="699.9999" y2="1265.0721">
			<stop  offset="5.102040e-003" style="stop-color:#00688D"/>
			<stop  offset="0.2449" style="stop-color:#4FA1A9"/>
			<stop  offset="0.4898" style="stop-color:#FF7F8C"/>
			<stop  offset="0.7806" style="stop-color:#FF9565"/>
			<stop  offset="0.9694" style="stop-color:#FFCFB9"/>
		</linearGradient>
		<rect id="XMLID_426_" x="0" clip-path="url(#XMLID_7_)" fill="url(#XMLID_22_)" width="1400" height="1400"/>
		
			<linearGradient id="XMLID_23_" gradientUnits="userSpaceOnUse" x1="353.7437" y1="1063.5319" x2="353.7437" y2="613.3672" gradientTransform="matrix(1 -1.339206e-003 1.339206e-003 1 -0.9758 0.4744)">
			<stop  offset="0" style="stop-color:#FF7F8C"/>
			<stop  offset="0.4161" style="stop-color:#FF9565"/>
			<stop  offset="1" style="stop-color:#FFFFB9"/>
		</linearGradient>
		<path id="XMLID_427_" clip-path="url(#XMLID_7_)" fill="url(#XMLID_23_)" d="M866.5,914.7c8.6,0.5,13.6,1.4,13.9,2.7
			c-6.2-31.1-13.3-68.6-49.6-76.2c-18.7-3.9-38.1,0.1-57.1,2.5c-19,2.4-39.5,3-55.9-6.7c-14-8.3-23.9-23.3-39.4-28.2
			c-14.8-4.6-30.9,1.2-46.2-1.2c-33.2-5.2-47.6-43.4-65.9-71.6c-35.7-55-109-82.5-172.1-64.5c-28.4,8.1-55.3,24.4-84.8,23.3
			c-28.7-1.2-54.3-19.1-73.7-40.3c-56.1-61.2-112.2-137.9-200.1-152.6c-45.2-7.5-94.6,1.4-133.8,25.6c-28.1,17.4-46.1,56.5-56.3,87
			c-9.4,28.2-4.1,51.3-5.6,79.2c-2,34.7-13.5,67-12.3,102.8c1.8,56.6,16.4,112,34.4,165.7c1.4,4.3,98.9-5.3,105.4-5.7
			c83.8-4.5,167.6-9,251.4-13.6c108.3-5.8,216.7-11.7,325-17.5C568.8,924,806.1,911,866.5,914.7z"/>
		<linearGradient id="XMLID_24_" gradientUnits="userSpaceOnUse" x1="1093.1515" y1="1409.5659" x2="1058.3834" y2="776.4106">
			<stop  offset="0.4898" style="stop-color:#FF7F8C"/>
			<stop  offset="0.7806" style="stop-color:#FF9565"/>
			<stop  offset="1" style="stop-color:#FFFFB9"/>
		</linearGradient>
		<circle id="XMLID_428_" clip-path="url(#XMLID_7_)" fill="url(#XMLID_24_)" cx="1063.2" cy="864.4" r="170.2"/>
		<linearGradient id="XMLID_25_" gradientUnits="userSpaceOnUse" x1="700" y1="1605.9956" x2="700" y2="120.4825">
			<stop  offset="5.102040e-003" style="stop-color:#0068B6"/>
			<stop  offset="0.2245" style="stop-color:#4FA1A9"/>
			<stop  offset="0.4898" style="stop-color:#FF7F8C"/>
			<stop  offset="0.7806" style="stop-color:#FF9565"/>
			<stop  offset="0.9694" style="stop-color:#FFCFB9"/>
		</linearGradient>
		<rect id="XMLID_429_" x="0" y="895" clip-path="url(#XMLID_7_)" fill="url(#XMLID_25_)" width="1400" height="505"/>
		<linearGradient id="XMLID_26_" gradientUnits="userSpaceOnUse" x1="135.4834" y1="756.7297" x2="1425.6157" y2="774.7315">
			<stop  offset="5.102040e-002" style="stop-color:#0F4565"/>
			<stop  offset="0.4898" style="stop-color:#FF7F8C"/>
			<stop  offset="0.7806" style="stop-color:#FF9565"/>
			<stop  offset="0.9694" style="stop-color:#FFCFB9"/>
		</linearGradient>
		<polygon id="XMLID_701_" clip-path="url(#XMLID_7_)" fill="url(#XMLID_26_)" points="749,942.1 -63.3,961.2 -64.9,942.1 
			-64.9,942.1 -95,578.8 6.4,627 25.5,548 44.9,645.3 134,687.7 138.2,670 142.6,691.8 155.6,698 163.5,699.8 176.3,647 188,705.6 
			330.6,739 336,716.5 341,741.5 359.3,745.8 371.6,694.8 382.9,751.3 409.8,757.6 415.2,735.3 420.2,760 436.5,763.9 532.5,818.6 
			544.2,770 556.7,832.4 677.5,901.3 690.3,848.3 703.9,916.4 		"/>
		<linearGradient id="XMLID_27_" gradientUnits="userSpaceOnUse" x1="66.7558" y1="1139.175" x2="1351.0559" y2="1139.175">
			<stop  offset="5.102040e-002" style="stop-color:#0F4565"/>
			<stop  offset="0.6916" style="stop-color:#FF7F8C"/>
		</linearGradient>
		<polygon id="XMLID_700_" opacity="0.59" clip-path="url(#XMLID_7_)" fill="url(#XMLID_27_)" points="749,942.1 703.9,967.8 
			690.3,1036 677.5,982.9 556.7,1051.8 544.2,1114.2 532.5,1065.6 436.5,1120.4 420.2,1124.2 415.2,1149 409.8,1126.6 382.9,1132.9 
			371.6,1189.4 359.3,1138.4 341,1142.8 336,1167.7 330.6,1145.2 188,1178.6 176.3,1237.2 163.5,1184.4 155.6,1186.2 142.6,1192.4 
			138.2,1214.2 134,1196.5 44.9,1238.9 25.5,1336.2 6.4,1257.2 -95,1305.4 -64.9,942.1 -63.3,961.2 		"/>
		<linearGradient id="XMLID_28_" gradientUnits="userSpaceOnUse" x1="1064.0986" y1="825.3195" x2="1062.6758" y2="1005.062">
			<stop  offset="0" style="stop-color:#FF7F8C"/>
			<stop  offset="0.3471" style="stop-color:#FF9565"/>
			<stop  offset="1" style="stop-color:#FFFFB9"/>
		</linearGradient>
		<path id="XMLID_477_" clip-path="url(#XMLID_7_)" fill="url(#XMLID_28_)" d="M1261.5,904.8c-2.8,1.9-6.3,2.4-9.7,2.8
			c-30.5,3.6-61,7.2-91.5,10.8c-3.5,0.4-7.8,1.5-8.5,4.9c-0.5,2.4,1.2,4.7,3.3,5.9c2.1,1.2,4.6,1.3,7,1.5
			c17.2,1.2,34.4,2.4,51.6,3.5c2.7,0.2,5.4,0.4,7.8,1.6c2.4,1.2,4.3,3.7,4.1,6.4c-0.4,4.2-5.4,6-9.5,6.7
			c-42.2,7.5-86.3,1.4-127.7,12.2c-1.9,0.5-3.9,1.2-4.8,2.9c-1.8,3.5,2.9,7,6.8,6.9c3.9-0.1,7.8-1.9,11.6-0.8
			c5.4,1.6,7.3,8.1,11.3,12c4.5,4.3,11.2,5.1,17.5,5.6c10.3,0.9,20.6,1.7,30.8,2.6c2.4,0.2,4.8,0.4,6.9,1.6c2,1.2,3.6,3.7,2.9,5.9
			c-0.6,2-2.7,3.3-4.6,4.2c-16.4,7.6-36,10.9-53.7,14.3c-20.3,3.9-40.6,7.5-60.8,11.7c-1.8,0.4-3.9,0.9-4.9,2.5
			c-1.3,2-0.1,4.9,1.9,6.3c2,1.4,4.5,1.6,6.9,1.9c9.3,1.1,18.5,2.9,27.5,5.5c2.8,0.8,6,2.1,6.9,4.9c0.8,2.4-0.5,5.1-2.5,6.6
			s-4.5,2.3-6.9,3c-8.7,2.4-17.3,4.9-26,7.3c-1.3,0.4-2.8,0.9-3.3,2.1c-0.6,1.4,0.4,3,1.7,3.7c1.3,0.7,2.8,0.7,4.3,0.7
			c23.9,0,47.8,1,71.6,3c4.2,0.4,9.7,2.2,9.3,6.4c-0.3,3.3-4.3,4.8-7.6,5.6c-13.3,2.7-32.2,4.5-43.5,12.4c-1,0.7-2,1.5-2.2,2.7
			c-0.3,1.6,1.1,3.2,2.7,3.8c1.6,0.5,3.3,0.4,5,0.3c6.6-0.2,13.2,1.9,18.5,5.8c2.1,1.5,4.1,3.8,3.7,6.4c-0.4,2.8-3.4,4.3-6,5.3
			c-23.2,8.6-48.1,2.3-71.8,9c-3.4,0.9-7.1,2.6-8.1,6c-1.4,5,4.6,9.2,9.8,9.6c7.4,0.5,15.6-2.3,22.7,0.7c6.1,2.6,12.1,10,8.5,16.9
			c-1.7,3.3-5.2,5.2-8.6,6.8c-5.8,2.7-12,4.8-18.2,6.2c-2.2,0.5-4.6,1-6.4,2.3c-1.8,1.4-3.1,3.9-2.1,6c1.1,2.4,4.1,2.9,6.7,3.2
			c6.4,0.6,12.8,1.3,19.1,1.9c1.9,0.2,3.8,0.4,5.4,1.4c1.6,1,2.7,3,2,4.8c-0.7,1.7-2.7,2.5-4.5,3c-22.3,6.1-45.9,7.6-68.7,4.3
			c-2.9-0.4-6.7-1.9-6.4-4.9c0.3-3.2,5.2-4,6.4-7c1.2-3-1.9-6.1-5.1-6.6c-3.2-0.5-6.4,0.7-9.6,0.8c-3.2,0.2-7-1.3-7.6-4.5
			c-0.4-2.2,1-4.5,3-5.7c1.9-1.2,4.2-1.6,6.5-2c8.8-1.5,34.1-0.9,33.1-14.9c-0.3-4.1-3.8-7.5-7.7-8.9c-8.7-3.1-19.5-1.1-28.4,0.1
			c-1.9,0.3-4.6,0-4.8-2c-0.2-1.8,2-2.7,3.1-4.1c1.7-2.3,0.1-5.7-2.4-7c-2.5-1.3-5.5-1.1-8.3-0.9c-7.6,0.5-15.2,0.3-22.7-0.5
			c-3.4-0.4-7.8-2.1-7.4-5.5c0.3-2.8,3.6-3.9,6.4-4.5c16.1-3.1,32.4-4.7,48.8-5c6.1-0.1,10.4-1.4,16.2-2.6
			c6.9-1.5,14.2,0.1,20.8-3.1c4.7-2.2,9.1-9,2.9-12.4c-2.3-1.3-5.2-1.4-7.8-1.4c-19.9-0.3-39.7-0.6-59.6-0.9c-1.9,0-3.9-0.1-5.7-0.9
			c-1.8-0.8-3.2-2.6-3-4.5c0.2-2.3,2.5-3.7,4.5-4.8l18-9.7c2.6-1.4,5.5-4.3,3.8-6.6c-0.8-1.1-2.3-1.4-3.7-1.5
			c-34.2-3-69.5-2.1-104-2.8c-6.2-0.1-14.5-2.6-13.8-8.7c0.6-4.8,6.5-6.6,11.3-7.3c15.4-2.1,34.2-1.7,46.8-11.8
			c2.8-2.3,5.3-5,8.2-7.1c7.8-5.5,20-7.1,29.2-9.9c13.2-4,28.8-3.8,42.4-5c17.2-1.5,34.9-2.8,51.7-7.4c5.1-1.4,11.1-4.4,11.1-9.7
			c0-3.1-2.4-5.9-5.2-7.3c-2.8-1.4-6-1.7-9.1-2c-20.2-2-40.3-4-60.5-6c-3.5-0.3-8.2-2.3-7.3-5.7c1-3.6,7-3.1,8.5-6.5
			c0.9-2-0.4-4.5-2.4-5.6c-1.9-1.1-4.3-1.2-6.5-1.2c-19.8-0.3-39.6-0.7-59.4-1.1c-4.1-0.1-9.1-0.7-10.6-4.5
			c-1.1-2.7,0.3-5.9,2.5-7.8c2.2-1.9,5.1-2.8,7.9-3.6c6.7-2,13.3-4,19.9-6c4.6-1.4,10-3.7,10.6-8.5c0.4-3.2-1.8-6.2-4.6-7.8
			c-2.8-1.6-6.1-2-9.3-2.5c-17.6-2.3-35.1-4.5-52.7-6.8c-4.2-0.5-8.5-1.1-12.2-3.2c-3.7-2.1-6.6-6.1-6.2-10.3
			c0.6-5.3,5.9-8.7,10.8-10.9c1.9-0.9,3.8-1.7,5.8-2.5H1264c0.3,0.3,0.5,0.6,0.6,1C1266.2,899.1,1264.3,902.9,1261.5,904.8z"/>
		<linearGradient id="XMLID_29_" gradientUnits="userSpaceOnUse" x1="944.0599" y1="803.5981" x2="942.5599" y2="993.0981">
			<stop  offset="0" style="stop-color:#FF7F8C"/>
			<stop  offset="0.3471" style="stop-color:#FF9565"/>
			<stop  offset="1" style="stop-color:#FFFFB9"/>
		</linearGradient>
		<path id="XMLID_478_" clip-path="url(#XMLID_7_)" fill="url(#XMLID_29_)" d="M919.5,991.4c15.2,2.4,30,0.2,45-1.5
			c2.5-0.3,5.3-2.3,4.7-4.7c-0.5-2.1-3-2.9-5.1-3.2c-14-2.3-31.3-1.2-44.7,3.5c-1.8,0.6-3.9,2-3.5,3.8
			C916.3,990.6,918,991.1,919.5,991.4z"/>
		<linearGradient id="XMLID_30_" gradientUnits="userSpaceOnUse" x1="1270.5101" y1="129.099" x2="1248.5101" y2="555.0989">
			<stop  offset="0" style="stop-color:#FF8188;stop-opacity:0"/>
			<stop  offset="0.3471" style="stop-color:#FF9565;stop-opacity:0.3"/>
			<stop  offset="1" style="stop-color:#FFFFB9"/>
		</linearGradient>
		<path id="XMLID_481_" clip-path="url(#XMLID_7_)" fill="url(#XMLID_30_)" d="M1520.1,459.4c-0.4,0.3-0.7,0.6-1.1,0.9H986.8
			c5.6-8.1,15.6-13.8,25.3-16.7c14.2-4.2,29.6-4.8,42.9-11.3c24.3-12,36.4-41.3,60.9-53c19.8-9.4,43.6-5.3,64.1-13.2
			c28.3-11,42.9-41.3,61.5-65.4c27.9-36.2,69.6-61.4,114.6-69.2c45-7.8,92.8,1.9,131.2,26.7L1520.1,459.4z"/>
		<linearGradient id="XMLID_31_" gradientUnits="userSpaceOnUse" x1="1095.6715" y1="804.7982" x2="1094.1715" y2="994.2982">
			<stop  offset="0" style="stop-color:#FF7F8C"/>
			<stop  offset="0.3471" style="stop-color:#FF9565"/>
			<stop  offset="1" style="stop-color:#FFFFB9"/>
		</linearGradient>
		<path id="XMLID_5_" clip-path="url(#XMLID_7_)" fill="url(#XMLID_31_)" d="M1084.9,1153.4c3,0.3,21.2,2.7,19.2-9.1
			c-0.6-3.5-3.2-4.3-5.2-4.3c-3.5,0.1-7.7,0.4-11,2.6c-1.5,1-5.9,3.9-6.2,6.8c-0.1,1.3,0.4,2.6,1.1,3.2S1084.2,1153.3,1084.9,1153.4
			z"/>
		<linearGradient id="XMLID_32_" gradientUnits="userSpaceOnUse" x1="956.6831" y1="803.698" x2="955.1831" y2="993.198">
			<stop  offset="0" style="stop-color:#FF7F8C"/>
			<stop  offset="0.3471" style="stop-color:#FF9565"/>
			<stop  offset="1" style="stop-color:#FFFFB9"/>
		</linearGradient>
		<path id="XMLID_4_" clip-path="url(#XMLID_7_)" fill="url(#XMLID_32_)" d="M945.9,1153.6c3,0.1,21.2,1.3,19.2-4.5
			c-0.6-1.7-3.2-2.2-5.2-2.1c-3.5,0-7.7,0.2-11,1.3c-1.5,0.5-5.9,1.9-6.2,3.4c-0.1,0.7,0.4,1.3,1.1,1.6
			C944.4,1153.5,945.2,1153.6,945.9,1153.6z"/>
	</g>
</g>
<g id="OBJECT">
	<g id="XMLID_3_">
		<defs>
			<rect id="XMLID_2_" x="0" width="1400" height="1400"/>
		</defs>
		<clipPath id="XMLID_33_">
			<use xlink:href="#XMLID_2_"  overflow="visible"/>
		</clipPath>
		<linearGradient id="XMLID_34_" gradientUnits="userSpaceOnUse" x1="-5.7778" y1="1278.2983" x2="591.3537" y2="1278.2983">
			<stop  offset="5.102040e-002" style="stop-color:#0F4565"/>
			<stop  offset="1" style="stop-color:#A1687D"/>
		</linearGradient>
		<path id="XMLID_432_" clip-path="url(#XMLID_33_)" fill="url(#XMLID_34_)" d="M338,1147.6H0c0,0-13,265.4,0,261.4
			c4.1-1.3,122.7-1.7,282.4-1.8c102.3-53,204.6-106,308.9-155.5L338,1147.6z"/>
		<linearGradient id="XMLID_35_" gradientUnits="userSpaceOnUse" x1="466.2106" y1="1369.7479" x2="144.2106" y2="1703.7479">
			<stop  offset="5.102040e-002" style="stop-color:#0F4565"/>
			<stop  offset="1" style="stop-color:#A1687D"/>
		</linearGradient>
		<path id="XMLID_433_" clip-path="url(#XMLID_33_)" fill="url(#XMLID_35_)" d="M557,1349c-39,0-80-8-115,6
			c-31.7,12.2-58.9,31.8-86.7,52.3c49.2,0,100.5,0.1,147.5,0.1C522.5,1389.3,541.4,1370.8,557,1349z"/>
		<linearGradient id="XMLID_36_" gradientUnits="userSpaceOnUse" x1="174.9668" y1="1321.1121" x2="880.4221" y2="1321.1121">
			<stop  offset="5.102040e-002" style="stop-color:#0F4565"/>
			<stop  offset="1" style="stop-color:#A1687D"/>
		</linearGradient>
		<path id="XMLID_434_" clip-path="url(#XMLID_33_)" fill="url(#XMLID_36_)" d="M880.4,1234.7l-287,17.9l-2-0.8
			C487,1301.2,277.2,1354.2,175,1407.2c43.3,0,109.7,0,180.4,0.1c27.8-20.5,55-40.1,86.7-52.3c35-14,76-6,115-6
			c-15.6,21.8-34.5,40.3-54.1,58.4c41.4,0,79.5,0.1,109.9,0.2C703.3,1352.2,791.9,1293.3,880.4,1234.7z"/>
		<linearGradient id="XMLID_37_" gradientUnits="userSpaceOnUse" x1="612.7554" y1="1321.7542" x2="1155" y2="1321.7542">
			<stop  offset="5.102040e-002" style="stop-color:#0F4565"/>
			<stop  offset="1" style="stop-color:#A1687D"/>
		</linearGradient>
		<path id="XMLID_435_" clip-path="url(#XMLID_33_)" fill="url(#XMLID_37_)" d="M883,1234.5l-2.6,0.2
			c-88.5,58.7-177.2,117.5-267.7,172.9c276.5,0.5,542.2,1.4,542.2,1.4C1131,1387,883,1234.5,883,1234.5z"/>
		<path id="XMLID_475_" clip-path="url(#XMLID_33_)" fill="#00364F" d="M196.2,1343.1c-36.6,5.4-72.7,13.6-107.7,28.6
			c30.4-24.1,61.9-44.8,89.7-72c-12.5-20.9-29.6-38.8-49.9-52.3c-16.3,20.4-31.1,41.3-35.4,66.2c3.4-26.2,10.2-51.4,16.4-77
			c-21.3-10.3-45.2-16-70.4-16c-2,0-3.9,0-5.9,0.1c-3.3,40.2-6.3,80.3-5.5,120.5c-17.2-35.6-32.3-73.3-55.9-106
			c-17,7.8-32.5,18.4-45.7,31.2c14.2,30,28,60.1,40.7,90.7c-19.8-21.7-43.3-39.7-67.6-56.4c-14.2,24.1-22.3,52.2-22.3,82.1
			c0,9.5,0.8,18.8,2.4,27.9c106.5-0.2,213.2-0.7,319.9-1.1c1.4-8.7,2.2-17.7,2.2-26.8C201.2,1369.2,199.5,1355.9,196.2,1343.1z"/>
		<path id="XMLID_476_" clip-path="url(#XMLID_33_)" fill="#00364F" d="M1430.8,1394.7c-23.6,3.5-46.8,8.8-69.4,18.5
			c19.6-15.5,39.9-28.9,57.8-46.4c-8.1-13.5-19.1-25-32.2-33.7c-10.5,13.2-20,26.6-22.8,42.6c2.2-16.9,6.6-33.1,10.6-49.6
			c-13.7-6.6-29.1-10.3-45.3-10.3c-1.3,0-2.5,0-3.8,0.1c-2.2,25.9-4,51.7-3.5,77.6c-11.1-22.9-20.8-47.2-36-68.3
			c-11,5-20.9,11.8-29.5,20.1c9.1,19.3,18.1,38.7,26.2,58.5c-12.8-14-27.9-25.6-43.6-36.3c-9.1,15.5-14.4,33.6-14.4,52.9
			c0,6.1,0.5,12.1,1.5,18c68.6-0.1,137.4-0.4,206.1-0.7c0.9-5.6,1.4-11.4,1.4-17.3C1434,1411.5,1432.9,1402.9,1430.8,1394.7z"/>
		<path id="XMLID_482_" clip-path="url(#XMLID_33_)" fill="#00364F" d="M1348.2,1399.3c-36.6,5.4-72.7,13.6-107.7,28.6
			c30.4-24.1,61.9-44.8,89.7-72c-12.5-20.9-29.6-38.8-49.9-52.3c-16.3,20.4-31.1,41.3-35.4,66.2c3.4-26.2,10.2-51.4,16.4-77
			c-21.3-10.3-45.2-16-70.4-16c-2,0-3.9,0-5.9,0.1c-3.3,40.2-6.3,80.3-5.5,120.5c-17.2-35.6-32.3-73.3-55.9-106
			c-17,7.8-32.5,18.4-45.7,31.2c14.2,30,28,60.1,40.7,90.7c-19.8-21.7-43.3-39.7-67.6-56.4c-14.2,24.1-22.3,52.2-22.3,82.1
			c0,9.5,0.8,18.8,2.4,27.9c106.5-0.2,213.2-0.7,319.9-1.1c1.4-8.7,2.2-17.7,2.2-26.8C1353.2,1425.4,1351.4,1412.1,1348.2,1399.3z"
			/>
		<polygon id="XMLID_483_" clip-path="url(#XMLID_33_)" fill="#00364F" points="632.3,1334.9 668.3,1188.9 668.3,1342.9 		"/>
		<linearGradient id="XMLID_38_" gradientUnits="userSpaceOnUse" x1="720.8616" y1="1238.1215" x2="639.1483" y2="1406.2623">
			<stop  offset="0" style="stop-color:#A1687D"/>
			<stop  offset="0.949" style="stop-color:#0F4565"/>
		</linearGradient>
		<polygon id="XMLID_608_" clip-path="url(#XMLID_33_)" fill="url(#XMLID_38_)" points="643.8,1382.4 679.2,1243.4 692.8,1376.4 		
			"/>
		<polygon id="XMLID_635_" clip-path="url(#XMLID_33_)" fill="#00364F" points="656.3,1357.9 632.3,1249.9 614.3,1357.9 		"/>
		
			<linearGradient id="XMLID_39_" gradientUnits="userSpaceOnUse" x1="772.9058" y1="1328.298" x2="711.8402" y2="1453.952" gradientTransform="matrix(1 0 0.1204 0.9815 -254.1808 39.2776)">
			<stop  offset="0" style="stop-color:#A1687D"/>
			<stop  offset="0.949" style="stop-color:#0F4565"/>
		</linearGradient>
		<polygon id="XMLID_484_" clip-path="url(#XMLID_33_)" fill="url(#XMLID_39_)" points="677.3,1449.4 640.3,1343.4 635.3,1449.4 		
			"/>
		<polygon id="XMLID_662_" clip-path="url(#XMLID_33_)" fill="#00364F" points="632.3,1382.9 590.3,1312.9 590.3,1382.9 		"/>
		<path id="XMLID_663_" clip-path="url(#XMLID_33_)" fill="#00364F" d="M720.3,1407.9l60-189c0,0-16.7,188.2-13,189
			S720.3,1407.9,720.3,1407.9z"/>
		<polygon id="XMLID_519_" clip-path="url(#XMLID_33_)" fill="#00364F" points="876.3,1480.9 902.3,1188.9 806.3,1480.9 		"/>
		<path id="XMLID_533_" clip-path="url(#XMLID_33_)" fill="#00364F" d="M835.4,1494.9c0.8-3-15.9-199-15.9-199l-52.3,190
			L835.4,1494.9z"/>
		<path id="XMLID_547_" clip-path="url(#XMLID_33_)" fill="#00364F" d="M697.3,1475.9c0-4-9-219-9-219l64,224L697.3,1475.9z"/>
		<polygon id="XMLID_485_" clip-path="url(#XMLID_33_)" fill="#00364F" points="867.8,1494.9 926.2,1303.9 926.2,1476.9 		"/>
		<polygon id="XMLID_486_" clip-path="url(#XMLID_33_)" fill="#00364F" points="787.3,1467.9 746.3,1318.9 732.3,1467.9 		"/>
		<polygon id="XMLID_487_" clip-path="url(#XMLID_33_)" fill="#00364F" points="720.3,1480.9 675.3,1342.9 663.1,1480.9 		"/>
		<polygon id="XMLID_488_" clip-path="url(#XMLID_33_)" fill="#00364F" points="628,1474.9 591,1368.9 586,1474.9 		"/>
		<g id="XMLID_1_" clip-path="url(#XMLID_33_)">
			<g id="XMLID_436_">
				<linearGradient id="XMLID_40_" gradientUnits="userSpaceOnUse" x1="316.9016" y1="1332.8313" x2="403.6807" y2="1332.8313">
					<stop  offset="5.102040e-002" style="stop-color:#0F4565"/>
					<stop  offset="1" style="stop-color:#A1687D"/>
				</linearGradient>
				<path id="XMLID_437_" fill="url(#XMLID_40_)" d="M365.2,1314.1c-7.7,0.6-15.3,1.2-23,1.8c-10.3,0.7-20.9-1.5-22.5,11.8
					c-0.9,8-1.9,15.9-2.8,23.9c29.1,0.2,58.3-2.8,86.8-9.1C392.8,1330.5,379.9,1320.5,365.2,1314.1z"/>
				<linearGradient id="XMLID_41_" gradientUnits="userSpaceOnUse" x1="365.1995" y1="1328.1029" x2="420.6231" y2="1328.1029">
					<stop  offset="5.102040e-002" style="stop-color:#0F4565"/>
					<stop  offset="0.4898" style="stop-color:#FF7F8C"/>
					<stop  offset="0.9694" style="stop-color:#FFCFB9"/>
				</linearGradient>
				<path id="XMLID_438_" fill="url(#XMLID_41_)" d="M418.6,1332.5c-7.2-6.9-15.3-10.2-24.8-11.9c-5.3-1-10.8-1.7-16-3.3
					c-1.5-0.5-6.9-3.7-8-3.6c-1.5,0.1-3,0.2-4.6,0.4c14.7,6.4,27.6,16.4,38.5,28.4c4.3-0.9,8.5-1.9,12.7-3c1.8-0.5,3.9-1.2,4.2-3
					C420.8,1334.9,419.7,1333.6,418.6,1332.5z"/>
				<linearGradient id="XMLID_42_" gradientUnits="userSpaceOnUse" x1="299.0381" y1="1180.6073" x2="400.4213" y2="1180.6073">
					<stop  offset="5.102040e-002" style="stop-color:#0F4565"/>
					<stop  offset="1" style="stop-color:#A1687D"/>
				</linearGradient>
				<path id="XMLID_439_" fill="url(#XMLID_42_)" d="M351,1084c-1.4-13.7-1.8-30.8-9.4-43c-14.6,5.4-27,24.9-33.3,44.1
					c-20.3,62-2.4,151.6,9.3,214.4c1.2,6.5,2.7,13.5,6.6,17.3c3.8,3.8,8.8,3.6,13.4,3.3c6.5-0.4,13-0.9,19.5-1.3
					C350.3,1240.8,358.7,1162.8,351,1084z"/>
				<linearGradient id="XMLID_43_" gradientUnits="userSpaceOnUse" x1="321.5599" y1="1179.1367" x2="435.0109" y2="1179.1367">
					<stop  offset="5.102040e-002" style="stop-color:#0F4565"/>
					<stop  offset="0.5942" style="stop-color:#FF7F8C"/>
					<stop  offset="0.9694" style="stop-color:#FFCFB9"/>
				</linearGradient>
				<path id="XMLID_440_" fill="url(#XMLID_43_)" d="M384.2,1085.3c-3-17.8-10.8-35-22.7-42.2c-6.9-4.2-13.6-4.5-20-2.2
					c7.6,12.2,8,29.3,9.4,43c7.7,78.8-0.7,156.8,6.1,234.8c7.2-0.5,14.3-1,21.5-1.5c-2.6,0,6.1-164.2,6.8-177.3
					C386.3,1121.7,387.2,1103.1,384.2,1085.3z"/>
				<linearGradient id="XMLID_44_" gradientUnits="userSpaceOnUse" x1="96.757" y1="1143.1814" x2="378.191" y2="1143.1814">
					<stop  offset="0" style="stop-color:#00394A"/>
					<stop  offset="0.3663" style="stop-color:#0F4565"/>
					<stop  offset="0.6573" style="stop-color:#FF7F8C"/>
					<stop  offset="0.9694" style="stop-color:#FFCFB9"/>
				</linearGradient>
				<path id="XMLID_441_" fill="url(#XMLID_44_)" d="M253,1220.3c-38.6,24.6-147.7,58.1-156-25c-1.7-16.9,5.3-33.9,15.8-46.1
					c12.4-14.5,27.4-20.4,42.9-28.4c17.3-8.9,33.5-20.7,51-29.5c35.1-17.7,71.4-31.8,107.8-45.8c15.8-6.1,34.1-12,48.4-2.2
					c15.7,10.7,18.8,36.4,12,55.6s-21.2,33.6-35,47.1C312.3,1173,284.6,1200.2,253,1220.3z"/>
				<path id="XMLID_442_" fill="#00364F" d="M301,1339c-22,9-45,8-68,12c18-9,39-17,52-34c-22.2-26.6-41.1-57.6-66.4-80.8
					c-10-2.5-20.5-3.7-31.4-3.1c-92.7,5-126.7,121.1-126.7,121.1s23.3,33.2,141.1,31.5c22.2-0.3,41-1.6,57-3.6
					C273.5,1368.5,288.3,1354.8,301,1339z"/>
				<linearGradient id="XMLID_45_" gradientUnits="userSpaceOnUse" x1="202.7063" y1="1307.9849" x2="391.1163" y2="1314.0399">
					<stop  offset="5.102040e-002" style="stop-color:#0F4565"/>
					<stop  offset="0.4898" style="stop-color:#FF7F8C"/>
					<stop  offset="0.9694" style="stop-color:#FFCFB9"/>
				</linearGradient>
				<path id="XMLID_443_" fill="url(#XMLID_45_)" d="M342.7,1354.1c-0.1-4.4-48.9-99.1-124.1-118c25.3,23.2,44.2,54.2,66.4,80.8
					c-13,17-34,25-52,34c23-4,46-3,68-12c-12.7,15.8-27.5,29.5-42.4,43.1C327.3,1373.8,342.7,1354.1,342.7,1354.1z"/>
				<linearGradient id="XMLID_46_" gradientUnits="userSpaceOnUse" x1="429.7229" y1="1334.2002" x2="548.2984" y2="1334.2002">
					<stop  offset="5.102040e-002" style="stop-color:#0F4565"/>
					<stop  offset="1" style="stop-color:#A1687D"/>
				</linearGradient>
				<path id="XMLID_444_" fill="url(#XMLID_46_)" d="M490,1320c-2.9-1.9-5.7-3.8-6.8-6.6c-10.3-6.5-36.8-21.3-42.2-8.2
					c-6.8,16.3-11.2,62.8-11.2,62.8s23.4,1.3,35.7,0s31.3-5.5,55.9-8.2c11.2-1.2,20.6-2.5,27-4.6
					C540.6,1335.2,508.7,1331.9,490,1320z"/>
				<linearGradient id="XMLID_47_" gradientUnits="userSpaceOnUse" x1="428.4584" y1="1334.2078" x2="587.4117" y2="1334.2078">
					<stop  offset="5.102040e-002" style="stop-color:#0F4565"/>
					<stop  offset="0.4898" style="stop-color:#FF7F8C"/>
					<stop  offset="0.9694" style="stop-color:#FFCFB9"/>
				</linearGradient>
				<path id="XMLID_445_" fill="url(#XMLID_47_)" d="M555.4,1342c-6.8-12.3-60.8-23.2-68.1-25.9c0,0-1.6-1.1-4.2-2.7
					c1.1,2.8,4,4.7,6.8,6.6c18.8,11.9,50.6,15.2,58.3,35C555.9,1352.5,559.1,1348.6,555.4,1342z"/>
				<linearGradient id="XMLID_48_" gradientUnits="userSpaceOnUse" x1="413.9638" y1="886.4293" x2="471.3728" y2="814.3867">
					<stop  offset="5.102040e-002" style="stop-color:#0F4565"/>
					<stop  offset="0.4898" style="stop-color:#FF7F8C"/>
					<stop  offset="0.9694" style="stop-color:#FFCFB9"/>
				</linearGradient>
				<path id="XMLID_446_" fill="url(#XMLID_48_)" d="M438.6,813.2c0,0,25.1,23.7,32.6,31c7.5,7.3,1,20.6-9,29.1
					c-10.4,8.8-22.3,10.8-28.7,8.2s-33.4-26.2-33.3-26.2C400.1,855.2,438.6,813.2,438.6,813.2z"/>
				<linearGradient id="XMLID_49_" gradientUnits="userSpaceOnUse" x1="397.7265" y1="855.6552" x2="459.0599" y2="788.3218">
					<stop  offset="5.102040e-002" style="stop-color:#0F4565"/>
					<stop  offset="1" style="stop-color:#A1687D"/>
				</linearGradient>
				<path id="XMLID_447_" fill="url(#XMLID_49_)" d="M430,846.5c-11.9,10.4-26.9,12.9-33.3,5.5c-6.5-7.4-2-21.8,9.9-32.3
					c11.9-10.4,26.9-12.9,33.3-5.5C446.4,821.6,441.9,836,430,846.5z"/>
				<path id="XMLID_611_" opacity="0.33" fill="#FFFFFF" d="M416.9,826.1c12.4,1,24.8,1.3,37.2,0.7c5-0.2,11.5-1.8,12-6.8
					c0.2-2.1-0.8-4.1-0.8-6.2c0-7,9.4-9.2,16.4-9.5c17.4-0.6,34.8-3.2,51.7-7.6c3.1-0.8,7.1-3.1,6-6.2c-0.5-1.5-2.2-2.3-3.2-3.6
					c-7.3-9.7,10.9-9.1,14.7-9.6c10-1.3,19.8-4.7,28.5-9.8c0.6-0.4,1.2-0.8,1.4-1.4c0.4-1.4-1.5-2.3-3-2.5
					c-16.4-2.2-33,1.3-49.5,0.3c-2.4-0.1-5.3-0.8-5.8-3.2c14.9-8.3,33.1-10.1,47.1-20c0.7-0.5,1.4-1.1,1.5-1.9
					c0.2-1.6-1.8-2.4-3.4-2.7c-21.3-3.4-43.3,0.6-64.7-2.2c-0.1-1.1-0.2-2.2-0.3-3.2c-2.9,0.7-5.8,1.6-8,3.6c-2.2,2-3.3,5.4-1.9,8
					c1.4,2.7,4.9,3.6,8,3.7c4,0.1,19-0.2,16,8.1c-11.1,2.9-22.1,6.2-32.9,10.1c-4.2,1.5-9.2,5-7.5,9.1c0.7,1.7,2.5,2.7,4.2,3.6
					c4.8,2.5,9.6,5,14.4,7.5c2,1,4.2,2.5,4.2,4.7c0,2.1-2.1,3.6-4,4.6c-20.9,10.7-44.9,10.3-67.7,12.7c-9.1,1-20.4,1.3-28.5,5.9
					c-7.7,4.4-13.8,17.1,0,16.8c3.7-0.1,7.4-1.1,10.9-0.1"/>
				
					<linearGradient id="XMLID_50_" gradientUnits="userSpaceOnUse" x1="427.7899" y1="884.1683" x2="485.3551" y2="884.1683" gradientTransform="matrix(0.9981 6.193648e-002 -6.193648e-002 0.9981 55.4506 -32.6528)">
					<stop  offset="0" style="stop-color:#FF7F8C"/>
					<stop  offset="0.3471" style="stop-color:#FF9565"/>
					<stop  offset="1" style="stop-color:#FFFFB9"/>
				</linearGradient>
				<path id="XMLID_448_" fill="url(#XMLID_50_)" d="M475.5,860.4c-8.3-13-23.2-21.5-38.6-22c-8.6,12.4-10.9,28.9-6.3,43.2
					c4.8,14.6,25.7,44.1,44.6,33.1C490.6,905.9,483,872.1,475.5,860.4z"/>
				<linearGradient id="XMLID_51_" gradientUnits="userSpaceOnUse" x1="354.4893" y1="777.4254" x2="458.1096" y2="777.4254">
					<stop  offset="0" style="stop-color:#FF7F8C"/>
					<stop  offset="0.3471" style="stop-color:#FF9565"/>
					<stop  offset="1" style="stop-color:#FFFFB9"/>
				</linearGradient>
				<path id="XMLID_449_" fill="url(#XMLID_51_)" d="M441.4,750.5c-1.1-9.8-3.6-19.9-7.5-29.2c-5.4,22.1-6.4,45.4-22,65.7
					c-5,7,1,14,3,19c3.7,9.2,3.3,18.4,1.7,27.6c5.1-5.2,9.5-11.2,13.1-17.5C440.7,796.3,443.9,772.9,441.4,750.5z"/>
				<linearGradient id="XMLID_52_" gradientUnits="userSpaceOnUse" x1="329.1588" y1="767.689" x2="508.029" y2="767.689">
					<stop  offset="0" style="stop-color:#FF7F8C"/>
					<stop  offset="0.3471" style="stop-color:#FF9565"/>
					<stop  offset="1" style="stop-color:#FFFFB9"/>
				</linearGradient>
				<path id="XMLID_450_" fill="url(#XMLID_52_)" d="M415,806c-2-5-8-12-3-19c15.6-20.3,16.6-43.6,22-65.7
					c-7.9-18.9-21.7-34.8-41.1-40c-27.1-7.2-56.1,9.9-71.3,33.5c-16.6,25.9-24.5,59.2-14,89c10.2,28.8,37.4,56.6,69.6,51.2
					c15.1-2.5,28.8-10.5,39.5-21.5C418.3,824.4,418.6,815.2,415,806z"/>
				<linearGradient id="XMLID_53_" gradientUnits="userSpaceOnUse" x1="385.3629" y1="749.31" x2="531.6506" y2="738.4739">
					<stop  offset="0" style="stop-color:#00394A"/>
					<stop  offset="0.3663" style="stop-color:#0F4565"/>
					<stop  offset="0.6573" style="stop-color:#FF7F8C"/>
					<stop  offset="0.9694" style="stop-color:#FFCFB9"/>
				</linearGradient>
				<path id="XMLID_648_" fill="url(#XMLID_53_)" d="M432,724c2.1-22.7-11.4-40.6-29.8-51.9c-7.6-2.5-15.6-3.9-23.5-4.3
					c-12.5-0.7-26.7,0.7-37.8,6.9c-4,2.2-8.4,5.1-10.7,9.2c-0.8,1.4-2,10.2-2.1,10.3c0,0-45.2,28.8-36.1,67.8
					c9.1,39,17.7,65,17.7,65s31.1,14,37.2,6.1c6.1-7.9,39.4-23.2,39.4-23.2S383,803,379,787s8-29,14.7-25c8.3,4.9,0.9,19.8,9,25
					c2.7-12.5,6.5-25,16.9-33.1c2-1.6,3.9-3,5.8-4.4c3.6-11.5,7.5-22.9,14.6-33.5C437,719,434,721,432,724z"/>
				<linearGradient id="XMLID_54_" gradientUnits="userSpaceOnUse" x1="373.7352" y1="733.5703" x2="471.0685" y2="678.2369">
					<stop  offset="5.102040e-002" style="stop-color:#0F4565"/>
					<stop  offset="0.4898" style="stop-color:#FF7F8C"/>
					<stop  offset="0.7806" style="stop-color:#FF9565"/>
					<stop  offset="0.9694" style="stop-color:#FFCFB9"/>
				</linearGradient>
				<path id="XMLID_649_" fill="url(#XMLID_54_)" d="M454.6,709.7c-3.1-3.7-8.2-2.2-11.6-4.8c-0.5-0.4-0.9-0.7-1.2-1.1
					c-2.1-2.1-1.8-3.9-4-6.5c-5.3-6.4-10.2-11.9-17.3-16.5c-5.7-3.7-11.9-6.6-18.3-8.7c18.4,11.3,31.9,29.2,29.8,51.9c2-3,5-5,8-8
					c-7.1,10.6-11,22-14.6,33.5c9.8-7.2,18.5-12.8,26.3-23.9C455,720.8,458.3,714.2,454.6,709.7z"/>
				<linearGradient id="XMLID_55_" gradientUnits="userSpaceOnUse" x1="454.3045" y1="1237.3389" x2="638.3045" y2="1114.6722">
					<stop  offset="5.102040e-002" style="stop-color:#0F4565"/>
					<stop  offset="0.4898" style="stop-color:#FF7F8C"/>
					<stop  offset="0.7806" style="stop-color:#FF9565"/>
					<stop  offset="0.9694" style="stop-color:#FFCFB9"/>
				</linearGradient>
				<path id="XMLID_452_" fill="url(#XMLID_55_)" d="M458,1145c-14.5,19.3-31.7,36.7-50,52.3c2-1.6,3.9-3.1,5.9-4.7
					c3,38.1,10.9,76.8,17.1,108.3c1.2,6.1,2.7,12.6,6.5,16.2c3.7,3.6,8.7,3.4,13.2,3.1c5.3-0.3,10.5-0.7,15.8-1
					c-3.3-48.4-6.4-97.1-6.4-145.2C461,1164,460,1155,458,1145z"/>
				<linearGradient id="XMLID_56_" gradientUnits="userSpaceOnUse" x1="313.6575" y1="1294.4258" x2="710.9908" y2="1069.0924">
					<stop  offset="5.102040e-002" style="stop-color:#0F4565"/>
					<stop  offset="0.4898" style="stop-color:#FF7F8C"/>
					<stop  offset="0.9694" style="stop-color:#FFCFB9"/>
				</linearGradient>
				<path id="XMLID_453_" fill="url(#XMLID_56_)" d="M486.1,1072.9c-43.1,46-97.6,80.2-156.2,104.1c43-9,85-18,127-32
					c0,0.7,0,0.9,0,1.3c0.3-0.4,0.7-0.9,1-1.3c2,10,3,19,2,29c0,48.1,3.1,96.8,6.4,145.2c8.2-0.5,16.4-1.1,24.6-1.6
					c-2.6,0,6-153.7,6.7-166c0.9-17.1,1.8-34.5-1.2-51.2C494.7,1090.4,491.2,1080.6,486.1,1072.9z"/>
				<linearGradient id="XMLID_57_" gradientUnits="userSpaceOnUse" x1="265.4776" y1="1207.9749" x2="802.1443" y2="942.6415">
					<stop  offset="0" style="stop-color:#00394A"/>
					<stop  offset="0.3663" style="stop-color:#0F4565"/>
					<stop  offset="0.6573" style="stop-color:#FF7F8C"/>
					<stop  offset="0.9694" style="stop-color:#FFCFB9"/>
				</linearGradient>
				<path id="XMLID_454_" fill="url(#XMLID_57_)" d="M486.1,1072.9c-3.3-5.1-7.3-9.2-12-11.9c-3-1.7-6-2.7-8.9-3.2
					c-3.6-1-7.4-1.5-11.3-1.6c-91.6,40.1-179.8,89.6-274.6,122.7c-6.5,10.3-10.2,22.4-8.8,34.4c9.4,83.2,133.8,49.6,177.9,25
					c21.1-11.8,40.6-25.9,59.5-41c17.9-15.2,34.7-32.2,49-51c0-0.4,0-0.6,0-1.3c-42,14-84,23-127,32
					C388.5,1153.1,443,1118.9,486.1,1072.9z"/>
				<linearGradient id="XMLID_58_" gradientUnits="userSpaceOnUse" x1="218.6826" y1="1134.3241" x2="664.6578" y2="1055.6226">
					<stop  offset="5.102040e-002" style="stop-color:#0F4565"/>
					<stop  offset="0.4898" style="stop-color:#FF7F8C"/>
					<stop  offset="0.7806" style="stop-color:#FF9565"/>
					<stop  offset="0.9694" style="stop-color:#FFCFB9"/>
				</linearGradient>
				<path id="XMLID_455_" fill="url(#XMLID_58_)" d="M418.5,1063.6c-41.4,14-82.9,28.1-122.9,45.8c-19.9,8.8-38.4,20.6-58.1,29.5
					c-17.7,8-34.7,13.9-48.9,28.4c-3.4,3.5-6.6,7.4-9.2,11.7c94.8-33.1,183-82.6,274.6-122.7
					C442.3,1056.1,429.8,1059.8,418.5,1063.6z"/>
				<linearGradient id="XMLID_59_" gradientUnits="userSpaceOnUse" x1="215.8456" y1="1037.6405" x2="850.1495" y2="793.1592">
					<stop  offset="0" style="stop-color:#00394A"/>
					<stop  offset="0.3663" style="stop-color:#0F4565"/>
					<stop  offset="0.6573" style="stop-color:#FF7F8C"/>
					<stop  offset="0.9694" style="stop-color:#FFCFB9"/>
				</linearGradient>
				<path id="XMLID_456_" fill="url(#XMLID_59_)" d="M403.9,873.2c-0.1,5-0.4,9.9-1.1,14.8c-2.8,23-10.8,45.3-17.4,67.7
					c-8.3,27.8-14.5,56.3-18.7,85.1c-2.2,15.1-3.8,30.3-4.9,45.6c-0.6,8.3-1,16.7-1.6,25c-1,14.5-2.6,29-6.6,42.9
					c-10.7,37.2-38.8,60.6-77.1,63.3c-47.9,3.3-96.2-0.3-143.1-10.7c-22.9-5.1-53-16.7-56-43.4c-3.2-29,10.2-67.6,17.9-95.3
					c17-60.6,44.1-118.5,80.1-170.1c41.6-59.6,102.9-116.1,181.2-100.1C389.7,804.7,404.3,842.8,403.9,873.2z"/>
				<linearGradient id="XMLID_60_" gradientUnits="userSpaceOnUse" x1="221.0468" y1="1065.6547" x2="507.0468" y2="956.3213">
					<stop  offset="5.102040e-002" style="stop-color:#0F4565"/>
					<stop  offset="0.4898" style="stop-color:#FF7F8C"/>
					<stop  offset="0.9694" style="stop-color:#FFCFB9"/>
				</linearGradient>
				<path id="XMLID_457_" fill="url(#XMLID_60_)" d="M402.8,888c-2.8,23-10.8,45.3-17.4,67.7c-8.3,27.8-14.5,56.3-18.7,85.1
					c-2.2,15.1-3.8,30.3-4.9,45.6c-0.6,8.3-1,16.7-1.6,25l-70.6,36.2l38.4-37.2c0,0-20.4-4-22.4-4.7c-2-0.7,30-16,32.7-16.7
					c2.7-0.7-58.7-37.7-58.7-37.7l16.7-16.7l-34.7-38.3C261.6,996.3,376.7,905.9,402.8,888z"/>
				<linearGradient id="XMLID_61_" gradientUnits="userSpaceOnUse" x1="425.988" y1="973.9877" x2="601.2486" y2="930.6686">
					<stop  offset="5.102040e-002" style="stop-color:#0F4565"/>
					<stop  offset="0.4898" style="stop-color:#FF7F8C"/>
					<stop  offset="0.7806" style="stop-color:#FF9565"/>
					<stop  offset="0.9694" style="stop-color:#FFCFB9"/>
				</linearGradient>
				<path id="XMLID_458_" fill="url(#XMLID_61_)" d="M468.3,893.7c-7.1,1.5-14.1,3.1-21.2,4.6c2.2,36.1,1.6,72.5-1.7,108.5
					c3.6,10.4,8.3,20.3,14.6,29.1C464.7,988.6,466.3,941.1,468.3,893.7z"/>
				<linearGradient id="XMLID_62_" gradientUnits="userSpaceOnUse" x1="343.4361" y1="823.6277" x2="378.1461" y2="815.0485">
					<stop  offset="5.102040e-002" style="stop-color:#0F4565"/>
					<stop  offset="0.4898" style="stop-color:#FF7F8C"/>
					<stop  offset="0.7806" style="stop-color:#FF9565"/>
					<stop  offset="0.9694" style="stop-color:#FFCFB9"/>
				</linearGradient>
				<path id="XMLID_459_" fill="url(#XMLID_62_)" d="M363.8,819.7c-5.6-0.5-11.5,0.4-17,2.2C352.4,820.3,358.2,819.5,363.8,819.7z"
					/>
				<linearGradient id="XMLID_63_" gradientUnits="userSpaceOnUse" x1="293.4578" y1="952.1749" x2="534.714" y2="892.5437">
					<stop  offset="5.102040e-002" style="stop-color:#0F4565"/>
					<stop  offset="0.4898" style="stop-color:#FF7F8C"/>
					<stop  offset="0.9694" style="stop-color:#FFCFB9"/>
				</linearGradient>
				<path id="XMLID_460_" fill="url(#XMLID_63_)" d="M358,861c19,44,32,88,55,130c9.3,16.8,23,37.9,42.6,38.3
					c-4.1-7-7.5-14.6-10.2-22.4c0,0.1,0,0.2,0,0.2c-14.3-45.9-30.2-91.4-47.7-136.2c-5-12.9-6.2-34.1-16.2-43.7
					c-4.9-4.7-11.1-7-17.6-7.6c-5.7-0.2-11.4,0.6-17,2.2c-5.1,1.7-9.9,4.3-13.8,7.4c-3.3,2.6-6.1,5.6-8.7,8.9
					C339.1,835,351.7,847.6,358,861z"/>
				<linearGradient id="XMLID_64_" gradientUnits="userSpaceOnUse" x1="362.6272" y1="964.9233" x2="515.6425" y2="928.9197">
					<stop  offset="5.102040e-002" style="stop-color:#0F4565"/>
					<stop  offset="0.4898" style="stop-color:#FF7F8C"/>
					<stop  offset="0.9694" style="stop-color:#FFCFB9"/>
				</linearGradient>
				<path id="XMLID_461_" fill="url(#XMLID_64_)" d="M497.8,1019.9c-4.3-43.3-8.7-86.5-13-129.8c-5.5,1.2-11,2.4-16.4,3.6
					c-2,47.4-3.6,94.9-8.3,142.3c-1.6-2.2-3-4.4-4.4-6.7c-19.6-0.4-33.3-21.5-42.6-38.3c-23-42-36-86-55-130
					c-6.2-13.4-18.9-26-33.6-22.8c-4.5,5.8-8,12.5-10.4,19.4c-12.8,36.2,5.6,90.9,22.6,124c19.1,37.1,50.1,68.5,88.1,86
					c11.2,5.2,23.3,9.3,35.7,9.1c12.4-0.2,25.2-5.5,32.1-15.8C500.3,1049.2,499.2,1033.9,497.8,1019.9z"/>
			</g>
		</g>
		<g id="XMLID_8_" clip-path="url(#XMLID_33_)">
			
				<linearGradient id="XMLID_65_" gradientUnits="userSpaceOnUse" x1="3166.853" y1="306.913" x2="3371.551" y2="1.2128" gradientTransform="matrix(-1 0 0 1 3460.2095 0)">
				<stop  offset="0" style="stop-color:#592731"/>
				<stop  offset="1" style="stop-color:#7E4D00"/>
			</linearGradient>
			<polygon id="XMLID_21_" fill="url(#XMLID_65_)" points="211.4,-30.2 138.8,201.7 94.1,224.1 152.8,82.6 			"/>
			<path id="XMLID_20_" fill="#00364F" d="M78.8,245l-79.7,25v-65.4l4.5-1C28.4,217.9,53.5,231.4,78.8,245z"/>
			<path id="XMLID_19_" fill="#00364F" d="M314.8,131.9L421,4.7h22.4l-78.2,113.2l100.6,2.8l53.1-95l-25.1,83.8L666.1,62
				c0,0-189.2,89.4-197.6,95c-8.4,5.6-109,0-109,0L78.8,245c-25.3-13.6-50.4-27.1-75.2-41.5L314.8,131.9z"/>
			<linearGradient id="XMLID_66_" gradientUnits="userSpaceOnUse" x1="774.3378" y1="-51.0376" x2="840.3345" y2="352.4422">
				<stop  offset="5.102040e-002" style="stop-color:#0F4565"/>
				<stop  offset="1" style="stop-color:#A1687D"/>
			</linearGradient>
			<path id="XMLID_18_" fill="url(#XMLID_66_)" d="M569.2-107.7L968.8-60c-3,11.9-3.6,24.8-7.1,36.2c-7.5-7.5-15.8-14.9-21.4-25.1
				c-9.3,9.3-14,21.4-17.7,33.5c-13-14-31.7-19.6-46.6-30.7c-10.2,14.9-24.2,24.2-39.1,35.4c-6.5,4.7-8.4,17.7-13,14.9
				c-9.3-5.6-16.8-18.6-17.7-31.7c-8.4,9.3-18.6,15.8-28.9,24.2C761.6,10.4,741.5,18,725.6,31c-0.2-8.4-0.1-15.4,0.5-19.3
				c-8.7,19.5-18.8,38.3-29.4,56.8L671.9,74c-1.6-3.1-3.1-6.1-4.5-9.2C637.2,4.4,607.5-54,569.2-107.7z"/>
			<linearGradient id="XMLID_67_" gradientUnits="userSpaceOnUse" x1="527.6027" y1="48.9618" x2="562.101" y2="300.9492">
				<stop  offset="5.102040e-002" style="stop-color:#0F4565"/>
				<stop  offset="1" style="stop-color:#A1687D"/>
			</linearGradient>
			<path id="XMLID_17_" fill="url(#XMLID_67_)" d="M421-80.5l25.1-41.9l123,14.7c38.3,53.7,68,112.1,98.2,172.5
				c1.4,3.1,2.9,6.2,4.5,9.2l-38.5,8.6v35.3l-30.7,14l-67.1-14l-22.4-35.3l-19.6,26.9l-39.1-50.3L421,25.7L379.1-6.6L421-80.5z"/>
			<path id="XMLID_16_" fill="#00364F" d="M806.1-27.5c0.9,13,8.4,26.1,17.7,31.7c4.7,2.8,6.5-10.2,13-14.9
				c14.9-11.2,28.9-20.5,39.1-35.4c14.9,11.2,33.5,16.8,46.6,30.7c3.7-12.1,8.4-24.2,17.7-33.5c5.6,10.2,14,17.7,21.4,25.1
				c3.4-11.5,4.1-24.3,7.1-36.2l61.5,7.3l11.2,39.2l-27.9,19.6v32.1h-39.1l-27.9-18.2l-13.6,23.8c-16.5-11.4-33.2-22.1-50.3-32.2
				c-0.7,12.7,0.1,25.5,2.2,38.1l-47.3-11.5l-27.9,44.3l22.4,13l-44.7,22.4l-19.6-35.3l-38.9,10c-0.6-9.2-2.6-40-3-61.6
				c15.9-12.9,36-20.6,51.7-34.2C787.5-11.6,797.8-18.2,806.1-27.5z"/>
			
				<linearGradient id="XMLID_68_" gradientUnits="userSpaceOnUse" x1="2811.2129" y1="139.2647" x2="3113.2153" y2="-311.7522" gradientTransform="matrix(-1 0 0 1 3460.2095 0)">
				<stop  offset="5.102040e-002" style="stop-color:#0F4565"/>
				<stop  offset="1" style="stop-color:#A1687D"/>
			</linearGradient>
			<path id="XMLID_15_" fill="url(#XMLID_68_)" d="M640.4-26.5c-12.1-10.2-29.8-15.8-36.3-30.7c-19.6,14-39.1,26.1-55.9,43.8
				c-23.3-4.7-45.6-13-69.9-16.8c-0.9,12.1-2.8,25.1-1.9,37.3c-27-0.9-54-4.7-81-3.7c-14.6-36.6-19.3-75.1-26.5-113.1l290.8,22.4
				c-5.9,22-9,44.5-18.4,65.6C641.3-23.7,641.3-25.6,640.4-26.5z"/>
			<path id="XMLID_14_" fill="#00364F" d="M205.9-122.4l163,12.5c7.2,38,11.9,76.5,26.5,113.1c27-0.9,54,2.8,81,3.7
				c-0.9-12.1,0.9-25.1,1.9-37.3c24.2,3.7,46.6,12.1,69.9,16.8c16.8-17.7,36.3-29.8,55.9-43.8c6.5,14.9,24.2,20.5,36.3,30.7
				c0.9,0.9,0.9,2.8,0.9,4.7c9.4-21.1,12.5-43.7,18.4-65.6l91.1,7l16.8,55.9l-36.3,14h-41.9v22.4v26.5h-47.5V8.9l-33.5,29.3
				L577.5,8.9v41.9l-41.9-12.6l11.2,44.3l-39.1,13l-53.1-13V38.3L421,64.8l-14,30.7h-23.9c0.9-16.2,0.5-32.6-0.8-48.5
				c-11.5,6.4-22.1,13.2-33.3,18.9L340,53.6L295.3,62l-33.5-11.2L239.4,3.3l-36.3,4.2l-11.2-48.9L205.9-122.4z"/>
			<linearGradient id="XMLID_69_" gradientUnits="userSpaceOnUse" x1="97.1468" y1="-15.6326" x2="122.6455" y2="230.3551">
				<stop  offset="5.102040e-002" style="stop-color:#0F4565"/>
				<stop  offset="1" style="stop-color:#A1687D"/>
			</linearGradient>
			<path id="XMLID_13_" fill="url(#XMLID_69_)" d="M62.9,67.5C68.5,51.7,75,36.8,79.7,21c8.4,14,10.2,29.8,15.8,44.7
				c26.1-30.7,60.5-52.2,95.9-70.8c11.2,12.1,23.8,22.3,37.3,31.2l-9,19.2l14,37.3l-44.7-12.2v61.5l-75.4-22.4L66.1,157h-52
				l-27.7-12.7C6.6,112.2,19.6,72.5,31.2,36.8C40.6,48.9,54.5,55.4,62.9,67.5z"/>
			<path id="XMLID_12_" fill="#00364F" d="M-51.2-80.5H421L372.3,5.3c-15.6-12.1-33-22.1-47.7-34.7c0,15.2,5.4,30.5,10.6,45
				L278.5,0.5l-39.1,2.8l-10.6,22.7c-13.5-8.9-26.1-19-37.3-31.2c-35.4,18.6-69.9,40-95.9,70.8C89.9,50.8,88.1,34.9,79.7,21
				C75,36.8,68.5,51.7,62.9,67.5c-8.4-12.1-22.4-18.6-31.7-30.7C19.6,72.5,6.6,112.2-13.6,144.3l-51.6-23.6L-51.2-80.5z"/>
			<linearGradient id="XMLID_70_" gradientUnits="userSpaceOnUse" x1="428.3201" y1="82.363" x2="489.817" y2="461.844">
				<stop  offset="5.102040e-002" style="stop-color:#0F4565"/>
				<stop  offset="1" style="stop-color:#A1687D"/>
			</linearGradient>
			<path id="XMLID_11_" fill="url(#XMLID_70_)" d="M408.4,211c8.4-13,13-27,16.8-41.9c17.7,17.7,34.5,36.3,50.3,55.9
				c33.9-12.8,68.7-21.1,102.6-32l26.6,28.7l-21.5,22.4l-58.7,12.4l2.8,37.9l-61.5-11.2l-47.5,11.2l-39.1-55.9l-19.6-16.8
				l-16.8,34.7h-38.8c-3.9-17.9-7.9-35.3-9.1-53.2c27.1-12.5,52.4-27.9,80-39.6C385.2,180.2,398.2,194.2,408.4,211z"/>
			<linearGradient id="XMLID_71_" gradientUnits="userSpaceOnUse" x1="146.9698" y1="94.1254" x2="226.4658" y2="371.6115">
				<stop  offset="5.102040e-002" style="stop-color:#0F4565"/>
				<stop  offset="1" style="stop-color:#A1687D"/>
			</linearGradient>
			<path id="XMLID_10_" fill="url(#XMLID_71_)" d="M179.3,176.5c18.6-9.3,30.7-26.1,40-43.8c8.4,19.6,14,40,25.1,58.7
				c5.6-14.9,13-27.9,18.6-42.8c1.6,21.4,7.2,42,15.1,62.1c-5,13.3-8.3,27-10.3,41l-20.2-30l-22.4,16.8l-8.4-27.9h-27.9L130.5,230
				L77.4,188l-16.9-44.7l24.3-16.1C116.7,142.7,147.5,161.3,179.3,176.5z"/>
			<path id="XMLID_9_" fill="#00364F" d="M244.5,191.4c-11.2-18.6-16.8-39.1-25.1-58.7c-9.3,17.7-21.4,34.5-40,43.8
				c-31.8-15.2-62.7-33.8-94.6-49.2l45.7-30.3l53.1,32.4l16.8-11.2l70.8-21.2l24.2,26.7h41.9h22.4c11.2,22.1,44.7,0,44.7,0h42.3
				l16.4,36.4l95,11.2l20.1,21.6c-33.9,10.9-68.7,19.2-102.6,32c-15.8-19.6-32.6-38.2-50.3-55.9c-3.7,14.9-8.4,28.9-16.8,41.9
				c-10.2-16.8-23.3-30.7-33.5-47.5c-27.6,11.7-52.9,27.1-80,39.6c-0.4-6-0.5-12-0.1-18.2c0-0.9-1.9-1.9-2.8-2.8
				c-5.5,9.2-10.1,18.7-13.7,28.5c-7.9-20-13.6-40.7-15.1-62.1C257.6,163.5,250.1,176.5,244.5,191.4z"/>
		</g>
	</g>
</g>
</svg>
